<?xml version="1.0" encoding="UTF-8" standalone="no"?>
<svg width="152px" height="146px" viewBox="0 0 152 146" version="1.1" xmlns="http://www.w3.org/2000/svg" xmlns:xlink="http://www.w3.org/1999/xlink">
    <!-- Generator: Sketch 41.1 (35376) - http://www.bohemiancoding.com/sketch -->
    <title>Page 1</title>
    <desc>Created with Sketch.</desc>
    <defs>
        <polygon id="path-1" points="0 145.331 151.937 145.331 151.937 0 0 0"></polygon>
    </defs>
    <g id="Page-1" stroke="none" stroke-width="1" fill="none" fill-rule="evenodd">
        <g id="ELEGIR-TIPO-DE-NEGOCIO" transform="translate(-43.000000, -539.000000)">
            <g id="Page-1" transform="translate(43.000000, 539.000000)">
                <path d="M145.2171,110.8994 L139.6541,110.8994 C137.1461,110.8994 135.1131,108.8664 135.1131,106.3584 L135.1131,100.7954 C135.1131,98.2874 137.1461,96.2544 139.6541,96.2544 L145.2171,96.2544 C147.7251,96.2544 149.7581,98.2874 149.7581,100.7954 L149.7581,106.3584 C149.7581,108.8664 147.7251,110.8994 145.2171,110.8994 Z" id="Fill-1" fill="#EF524E"></path>
                <path d="M139.3126,96.7117 C137.2496,96.7117 135.5716,98.3907 135.5716,100.4537 L135.5716,106.6997 C135.5716,108.7627 137.2496,110.4417 139.3126,110.4417 L145.5586,110.4417 C147.6216,110.4417 149.3006,108.7627 149.3006,106.6997 L149.3006,100.4537 C149.3006,98.3907 147.6216,96.7117 145.5586,96.7117 L139.3126,96.7117 Z M145.5586,111.3577 L139.3126,111.3577 C136.7446,111.3577 134.6556,109.2677 134.6556,106.6997 L134.6556,100.4537 C134.6556,97.8857 136.7446,95.7957 139.3126,95.7957 L145.5586,95.7957 C148.1276,95.7957 150.2156,97.8857 150.2156,100.4537 L150.2156,106.6997 C150.2156,109.2677 148.1276,111.3577 145.5586,111.3577 L145.5586,111.3577 Z" id="Fill-3" fill="#444445"></path>
                <mask id="mask-2" fill="white">
                    <use xlink:href="#path-1"></use>
                </mask>
                <g id="Clip-6"></g>
                <polygon id="Fill-5" fill="#FFFFFF" mask="url(#mask-2)" points="135.536 107.93 149.277 107.93 149.277 106.379 135.536 106.379"></polygon>
                <path d="M150.7752,103.4662 L134.0962,103.4662 C133.7072,103.4662 133.3922,103.1512 133.3922,102.7622 C133.3922,102.3722 133.7072,102.0572 134.0962,102.0572 L150.7752,102.0572 C151.1642,102.0572 151.4792,102.3722 151.4792,102.7622 C151.4792,103.1512 151.1642,103.4662 150.7752,103.4662" id="Fill-7" fill="#D1D3D4" mask="url(#mask-2)"></path>
                <path d="M134.0965,102.5151 C133.9615,102.5151 133.8495,102.6261 133.8495,102.7621 C133.8495,102.8971 133.9615,103.0081 134.0965,103.0081 L150.7745,103.0081 C150.9105,103.0081 151.0215,102.8971 151.0215,102.7621 C151.0215,102.6261 150.9105,102.5151 150.7745,102.5151 L134.0965,102.5151 Z M150.7745,103.9241 L134.0965,103.9241 C133.4555,103.9241 132.9345,103.4021 132.9345,102.7621 C132.9345,102.1211 133.4555,101.5991 134.0965,101.5991 L150.7745,101.5991 C151.4165,101.5991 151.9375,102.1211 151.9375,102.7621 C151.9375,103.4021 151.4165,103.9241 150.7745,103.9241 L150.7745,103.9241 Z" id="Fill-8" fill="#444445" mask="url(#mask-2)"></path>
                <polygon id="Fill-9" fill="#FCB32C" mask="url(#mask-2)" points="73.8202 4.6827 55.1642 24.8027 112.9532 24.8027"></polygon>
                <path d="M73.0706,3.9332 C67.6256,9.8052 62.1806,15.6782 56.7356,21.5502 C55.9616,22.3842 55.1876,23.2192 54.4146,24.0532 C53.7996,24.7172 54.2206,25.8632 55.1636,25.8632 L74.7756,25.8632 L105.7896,25.8632 L112.9526,25.8632 C113.9676,25.8632 114.4446,24.3802 113.4876,23.8882 C109.0646,21.6132 104.6406,19.3392 100.2166,17.0642 C93.2066,13.4602 86.1966,9.8552 79.1856,6.2512 L74.3556,3.7672 C73.1436,3.1452 72.0706,4.9732 73.2856,5.5982 C77.7086,7.8722 82.1326,10.1472 86.5566,12.4212 C93.5666,16.0262 100.5766,19.6302 107.5866,23.2342 C109.1976,24.0622 110.8076,24.8902 112.4176,25.7182 C112.5966,25.0602 112.7746,24.4012 112.9526,23.7432 L93.3406,23.7432 L62.3266,23.7432 L55.1636,23.7432 C55.4136,24.3462 55.6636,24.9492 55.9136,25.5522 C61.3586,19.6802 66.8036,13.8082 72.2486,7.9362 C73.0216,7.1012 73.7956,6.2672 74.5696,5.4322 C75.4966,4.4332 74.0006,2.9302 73.0706,3.9332" id="Fill-10" fill="#404041" mask="url(#mask-2)"></path>
                <path d="M71.3164,5.0989 C71.8264,5.6339 72.5154,6.0669 73.1874,6.3779 C80.8654,9.9429 88.5414,13.5129 96.2174,17.0809 C101.7574,19.6549 107.2964,22.2289 112.8354,24.8029 L122.1754,24.8029 C119.5864,23.5249 116.9984,22.2469 114.4094,20.9679 C106.3104,16.9689 98.2114,12.9699 90.1134,8.9709 C87.5974,7.7289 85.0814,6.4859 82.5654,5.2439 C79.7454,3.8519 76.8514,2.4089 73.9334,1.2369 C71.5074,0.2619 69.3614,3.0449 71.3164,5.0989" id="Fill-11" fill="#FCB32C" mask="url(#mask-2)"></path>
                <path d="M70.567,5.8485 C72.168,7.4075 74.498,8.1505 76.491,9.0765 C78.73,10.1165 80.969,11.1565 83.209,12.1975 C87.681,14.2765 92.154,16.3565 96.627,18.4345 C101.096,20.5115 105.565,22.5885 110.034,24.6655 C111.109,25.1645 112.143,25.8635 113.347,25.8635 L116.163,25.8635 L122.175,25.8635 C123.18,25.8635 123.681,24.3665 122.71,23.8875 C114.554,19.8605 106.397,15.8325 98.241,11.8045 C94.137,9.7785 90.034,7.7525 85.931,5.7265 C82.108,3.8385 78.258,1.5995 74.215,0.2145 C72.729,-0.2945 71.078,0.1035 70.135,1.4065 C69.089,2.8515 69.461,4.5745 70.567,5.8485 C71.463,6.8805 72.957,5.3755 72.066,4.3495 C71.332,3.5035 71.617,2.1425 72.886,2.0965 C73.653,2.0685 74.548,2.6235 75.219,2.9165 C76.069,3.2885 76.912,3.6765 77.751,4.0735 C81.278,5.7405 84.76,7.5065 88.257,9.2345 C95.404,12.7635 102.551,16.2925 109.698,19.8215 C113.679,21.7875 117.66,23.7525 121.64,25.7185 C121.819,25.0595 121.997,24.4015 122.175,23.7435 L117.296,23.7435 L114.105,23.7435 C113.778,23.7435 113.446,23.7615 113.12,23.7435 C113.046,23.7385 112.962,23.7585 112.89,23.7435 C112.875,23.7395 112.857,23.7465 112.842,23.7435 C113.352,23.8615 112.206,23.3465 112.237,23.3615 C103.621,19.3575 95.005,15.3535 86.39,11.3485 C83.959,10.2185 81.528,9.0885 79.097,7.9585 C77.817,7.3645 76.537,6.7695 75.258,6.1755 C74.142,5.6575 72.961,5.2215 72.066,4.3495 C71.088,3.3965 69.588,4.8945 70.567,5.8485" id="Fill-12" fill="#404041" mask="url(#mask-2)"></path>
                <path d="M70.6113,9.8609 L61.2173,19.1679 C63.7873,21.7619 67.9743,21.7809 70.5683,19.2109 C73.1623,16.6409 73.1813,12.4549 70.6113,9.8609" id="Fill-13" fill="#EF524E" mask="url(#mask-2)"></path>
                <path d="M70.2366,10.2356 C72.5166,12.6456 72.5886,16.4636 70.1936,18.8366 C67.7956,21.2116 63.9796,21.0936 61.5926,18.7936 C61.1006,18.3196 60.3506,19.0686 60.8426,19.5426 C63.6466,22.2446 68.1286,22.3636 70.9426,19.5856 C73.7586,16.8066 73.6526,12.3046 70.9856,9.4866 C70.5166,8.9896 69.7676,9.7396 70.2366,10.2356" id="Fill-14" fill="#404041" mask="url(#mask-2)"></path>
                <path d="M94.2455,24.803 C94.2455,28.455 91.2855,31.415 87.6335,31.415 C83.9825,31.415 81.0215,28.455 81.0215,24.803 C81.0215,21.151 83.9825,18.191 87.6335,18.191 C91.2855,18.191 94.2455,21.151 94.2455,24.803" id="Fill-15" fill="#EF524E" mask="url(#mask-2)"></path>
                <path d="M93.7155,24.803 C93.6425,28.119 90.9995,30.885 87.6335,30.885 C84.3145,30.885 81.5515,28.12 81.5515,24.803 C81.5515,21.487 84.3145,18.721 87.6335,18.721 C90.9995,18.721 93.6425,21.488 93.7155,24.803 C93.7305,25.484 94.7905,25.487 94.7755,24.803 C94.7105,21.85 92.9475,19.179 90.1535,18.123 C87.3285,17.054 84.0415,17.929 82.1245,20.262 C80.2365,22.559 79.9675,25.886 81.4915,28.447 C83.0095,30.998 86.0135,32.352 88.9315,31.825 C92.3295,31.211 94.7015,28.199 94.7755,24.803 C94.7905,24.121 93.7305,24.121 93.7155,24.803" id="Fill-16" fill="#404041" mask="url(#mask-2)"></path>
                <polygon id="Fill-17" fill="#00C5F5" mask="url(#mask-2)" points="36.57 124.718 122.64 124.718 122.64 71.948 36.57 71.948"></polygon>
                <path d="M122.6401,123.6583 L114.0651,123.6583 L93.4781,123.6583 L68.6881,123.6583 L47.1641,123.6583 L40.0731,123.6583 C39.0101,123.6583 37.7771,123.4843 36.7241,123.6583 C36.6751,123.6663 36.6191,123.6583 36.5701,123.6583 C36.9231,124.0113 37.2761,124.3653 37.6301,124.7183 L37.6301,106.8713 L37.6301,78.4453 L37.6301,71.9473 C37.2761,72.3013 36.9231,72.6543 36.5701,73.0073 L45.1441,73.0073 L65.7311,73.0073 L90.5211,73.0073 L112.0451,73.0073 L119.1361,73.0073 C120.2001,73.0073 121.4331,73.1823 122.4861,73.0073 C122.5341,72.9993 122.5901,73.0073 122.6401,73.0073 C122.2871,72.6543 121.9331,72.3013 121.5801,71.9473 L121.5801,89.7943 L121.5801,118.2203 L121.5801,124.7183 C121.5801,126.0823 123.7001,126.0843 123.7001,124.7183 L123.7001,106.8713 L123.7001,78.4453 L123.7001,71.9473 C123.7001,71.3743 123.2141,70.8873 122.6401,70.8873 L114.0651,70.8873 L93.4781,70.8873 L68.6881,70.8873 L47.1641,70.8873 C43.6961,70.8873 40.1901,70.7393 36.7241,70.8873 C36.6721,70.8903 36.6211,70.8873 36.5701,70.8873 C35.9971,70.8873 35.5101,71.3733 35.5101,71.9473 L35.5101,89.7943 L35.5101,118.2203 L35.5101,124.7183 C35.5101,125.2913 35.9951,125.7783 36.5701,125.7783 L45.1441,125.7783 L65.7311,125.7783 L90.5211,125.7783 L112.0451,125.7783 C115.5141,125.7783 119.0201,125.9273 122.4861,125.7783 C122.5371,125.7763 122.5891,125.7783 122.6401,125.7783 C124.0041,125.7783 124.0061,123.6583 122.6401,123.6583" id="Fill-18" fill="#404041" mask="url(#mask-2)"></path>
                <polygon id="Fill-19" fill="#00C5F5" mask="url(#mask-2)" points="36.994 45.766 122.64 45.766 122.64 28.309 36.994 28.309"></polygon>
                <path d="M122.6401,27.2493 L114.0961,27.2493 L93.6881,27.2493 L68.9011,27.2493 L47.5591,27.2493 C44.0981,27.2493 40.5981,27.0973 37.1391,27.2493 C37.0901,27.2513 37.0421,27.2493 36.9941,27.2493 C36.4211,27.2493 35.9341,27.7353 35.9341,28.3093 L35.9341,45.7663 C35.9341,46.3393 36.4191,46.8263 36.9941,46.8263 L45.5381,46.8263 L65.9451,46.8263 L90.7321,46.8263 L112.0751,46.8263 C115.5361,46.8263 119.0361,46.9783 122.4951,46.8263 C122.5431,46.8243 122.5921,46.8263 122.6401,46.8263 C123.2131,46.8263 123.7001,46.3403 123.7001,45.7663 L123.7001,28.3093 C123.7001,26.9453 121.5801,26.9433 121.5801,28.3093 L121.5801,45.7663 L122.6401,44.7063 L114.0961,44.7063 L93.6881,44.7063 L68.9011,44.7063 L47.5591,44.7063 L40.5131,44.7063 C39.4421,44.7063 38.1991,44.5293 37.1391,44.7063 C37.0931,44.7133 37.0401,44.7063 36.9941,44.7063 C37.3471,45.0593 37.7001,45.4133 38.0541,45.7663 L38.0541,28.3093 C37.7001,28.6623 37.3471,29.0163 36.9941,29.3693 L45.5381,29.3693 L65.9451,29.3693 L90.7321,29.3693 L112.0751,29.3693 C115.5361,29.3693 119.0361,29.5213 122.4951,29.3693 C122.5431,29.3673 122.5921,29.3693 122.6401,29.3693 C124.0041,29.3693 124.0061,27.2493 122.6401,27.2493" id="Fill-20" fill="#404041" mask="url(#mask-2)"></path>
                <path d="M43.6728,72.1598 L48.0178,45.7658 L59.3588,45.7658 L57.8768,72.1598 C57.8768,72.1598 57.4518,79.2618 50.7738,79.2618 C44.0958,79.2618 43.6728,72.1598 43.6728,72.1598" id="Fill-21" fill="#F0F2F2" mask="url(#mask-2)"></path>
                <path d="M44.6949,72.4415 C45.9619,64.7435 47.2289,57.0455 48.4969,49.3465 C48.6779,48.2475 48.8589,47.1475 49.0399,46.0475 C48.6989,46.3075 48.3579,46.5665 48.0179,46.8265 L59.3589,46.8265 C59.0059,46.4725 58.6529,46.1195 58.2989,45.7665 C57.9429,52.1045 57.5869,58.4425 57.2309,64.7805 C57.0939,67.2285 56.9549,69.6765 56.8189,72.1245 C56.8169,72.1495 56.8149,72.1735 56.8139,72.1985 C56.7909,72.5365 56.8279,72.1935 56.7849,72.4475 C56.6759,73.0995 56.5179,73.7445 56.2829,74.3635 C55.5969,76.1675 54.2509,77.5805 52.3369,78.0345 C49.8469,78.6265 47.1969,77.7895 45.8519,75.5605 C45.3979,74.8085 45.0969,73.9905 44.8989,73.1365 C44.8329,72.8535 44.7819,72.5695 44.7389,72.2825 C44.7789,72.5525 44.7399,72.2705 44.7329,72.1595 C44.6459,70.8045 42.5249,70.7955 42.6129,72.1595 C42.8339,75.6165 44.9509,79.0675 48.4119,80.0195 C51.0099,80.7345 54.0049,80.2445 56.0469,78.4385 C57.4639,77.1845 58.3429,75.3525 58.7339,73.5225 C59.1249,71.6905 59.0729,69.7355 59.1769,67.8765 C59.4219,63.5225 59.6659,59.1685 59.9109,54.8145 C60.0799,51.7985 60.2499,48.7825 60.4189,45.7665 C60.4519,45.1935 59.9079,44.7065 59.3589,44.7065 L48.0179,44.7065 C47.5929,44.7065 47.0699,45.0325 46.9949,45.4845 C45.7279,53.1825 44.4609,60.8805 43.1939,68.5795 C43.0129,69.6785 42.8319,70.7785 42.6509,71.8775 C42.4309,73.2125 44.4739,73.7865 44.6949,72.4415" id="Fill-22" fill="#404041" mask="url(#mask-2)"></path>
                <path d="M72.0803,72.1598 L72.0803,45.7658 L86.2833,45.7658 L86.2843,72.1598 C86.2843,72.1598 86.0703,79.2618 79.1813,79.2618 C72.2913,79.2618 72.0803,72.1598 72.0803,72.1598" id="Fill-23" fill="#0B468C" mask="url(#mask-2)"></path>
                <path d="M73.1403,72.1598 L73.1403,49.0158 L73.1403,45.7658 C72.7873,46.1198 72.4333,46.4728 72.0803,46.8258 L86.2833,46.8258 C85.9293,46.4728 85.5763,46.1198 85.2233,45.7658 L85.2233,65.1908 C85.2243,67.5048 85.3203,69.8418 85.2243,72.1538 C85.2223,72.2038 85.2183,72.2538 85.2153,72.3038 C85.2123,72.3718 85.2033,72.4398 85.1973,72.5078 C85.1703,72.8048 85.2013,72.5218 85.1723,72.6948 C85.0623,73.3708 84.8933,74.0498 84.6313,74.6838 C83.8863,76.4818 82.4403,77.7438 80.5063,78.0958 C77.9683,78.5588 75.3723,77.7058 74.0823,75.4008 C73.6873,74.6938 73.4353,73.9228 73.2713,73.1318 C73.1673,72.6288 73.1583,72.6798 73.1403,72.1598 C73.0933,70.7988 70.9733,70.7928 71.0203,72.1598 C71.1363,75.5458 73.1643,78.8878 76.4773,79.9358 C79.0533,80.7498 82.1853,80.3628 84.3083,78.6378 C85.7843,77.4388 86.7063,75.6528 87.1113,73.8148 C87.5113,71.9958 87.3443,70.0778 87.3443,68.2318 C87.3433,63.8538 87.3433,59.4758 87.3433,55.0978 C87.3433,51.9868 87.3433,48.8768 87.3423,45.7658 C87.3423,45.1928 86.8573,44.7058 86.2833,44.7058 L72.0803,44.7058 C71.5073,44.7058 71.0203,45.1918 71.0203,45.7658 L71.0203,68.9098 L71.0203,72.1598 C71.0203,73.5238 73.1403,73.5258 73.1403,72.1598" id="Fill-24" fill="#404041" mask="url(#mask-2)"></path>
                <path d="M100.4877,72.1598 L100.0627,45.7658 L111.8287,45.7658 L114.6917,72.1598 C114.6917,72.1598 114.3727,78.2018 108.4367,79.1558 C102.5007,80.1098 100.6317,74.7138 100.4877,72.1598" id="Fill-25" fill="#0087B5" mask="url(#mask-2)"></path>
                <path d="M101.5477,72.1598 C101.4237,64.4448 101.2987,56.7308 101.1747,49.0158 C101.1577,47.9328 101.1397,46.8498 101.1227,45.7658 C100.7687,46.1198 100.4157,46.4728 100.0627,46.8258 L111.8287,46.8258 C111.4747,46.4728 111.1217,46.1198 110.7687,45.7658 C111.3987,51.5818 112.0297,57.3968 112.6607,63.2118 C112.9637,66.0028 113.2667,68.7938 113.5687,71.5848 C113.5897,71.7708 113.6187,71.9588 113.6297,72.1458 C113.6317,72.1828 113.6237,72.2208 113.6237,72.2578 C113.6257,72.5628 113.6507,72.2228 113.5707,72.6158 C113.2557,74.1628 112.6247,75.6308 111.4187,76.6958 C109.5087,78.3838 106.1587,78.8348 104.0597,77.2488 C102.5337,76.0958 101.6727,74.0338 101.5477,72.1598 C101.4567,70.8058 99.3367,70.7958 99.4277,72.1598 C99.7397,76.8248 103.1867,80.8338 108.1277,80.2598 C112.1207,79.7958 115.6407,76.4488 115.7417,72.2788 C115.7877,70.3698 115.3367,68.3358 115.1307,66.4408 C114.6817,62.2998 114.2327,58.1598 113.7837,54.0188 C113.4847,51.2678 113.1867,48.5168 112.8887,45.7658 C112.8267,45.1958 112.4527,44.7058 111.8287,44.7058 L100.0627,44.7058 C99.4967,44.7058 98.9937,45.1918 99.0027,45.7658 C99.1267,53.4808 99.2507,61.1948 99.3757,68.9098 C99.3927,69.9928 99.4107,71.0768 99.4277,72.1598 C99.4497,73.5228 101.5697,73.5268 101.5477,72.1598" id="Fill-26" fill="#404041" mask="url(#mask-2)"></path>
                <path d="M128.8952,72.1598 L123.3822,45.7658 L111.8282,45.7658 L114.6912,72.1598 C114.6912,72.1598 114.6902,79.2618 121.7922,79.2618 C128.8942,79.2618 128.8952,72.1598 128.8952,72.1598" id="Fill-27" fill="#0B468C" mask="url(#mask-2)"></path>
                <path d="M129.9173,71.8779 C128.3073,64.1689 126.6973,56.4609 125.0863,48.7519 C124.8593,47.6629 124.6313,46.5739 124.4043,45.4849 C124.3103,45.0329 123.8263,44.7059 123.3823,44.7059 L111.8283,44.7059 C111.3013,44.7059 110.7063,45.1939 110.7683,45.7659 C111.5313,52.8039 112.2953,59.8409 113.0583,66.8779 C113.2733,68.8559 113.4623,70.8389 113.6783,72.8159 C113.8693,74.5549 114.4533,76.2529 115.5623,77.6239 C117.2333,79.6929 119.9163,80.4839 122.5053,80.2959 C126.8363,79.9799 129.9343,76.4779 129.9553,72.1599 C129.9613,70.7959 127.8423,70.7939 127.8353,72.1599 C127.8313,73.0129 127.6493,73.9009 127.2403,74.8599 C126.4363,76.7439 124.8103,77.9149 122.7773,78.1519 C120.5063,78.4169 118.0913,77.7889 116.8233,75.7649 C116.1513,74.6909 115.8373,73.3449 115.7583,72.3479 C115.2743,66.2629 114.4523,60.1859 113.7943,54.1179 C113.4923,51.3339 113.1903,48.5499 112.8883,45.7659 C112.5353,46.1199 112.1813,46.4729 111.8283,46.8259 L123.3823,46.8259 C123.0413,46.5669 122.7003,46.3069 122.3603,46.0479 C123.9703,53.7569 125.5803,61.4659 127.1903,69.1739 C127.4183,70.2629 127.6453,71.3519 127.8733,72.4419 C128.1523,73.7759 130.1963,73.2109 129.9173,71.8779" id="Fill-28" fill="#404041" mask="url(#mask-2)"></path>
                <polygon id="Fill-29" fill="#986733" mask="url(#mask-2)" points="99.568 124.718 116.599 124.718 116.599 82.36 99.568 82.36"></polygon>
                <path d="M116.5995,123.6583 L99.5685,123.6583 C99.9215,124.0113 100.2755,124.3653 100.6285,124.7183 L100.6285,110.4153 L100.6285,87.6083 L100.6285,82.3603 C100.2755,82.7133 99.9215,83.0663 99.5685,83.4203 L116.5995,83.4203 C116.2465,83.0663 115.8925,82.7133 115.5395,82.3603 L115.5395,96.6623 L115.5395,119.4703 L115.5395,124.7183 C115.5395,126.0823 117.6595,126.0843 117.6595,124.7183 L117.6595,110.4153 L117.6595,87.6083 L117.6595,82.3603 C117.6595,81.7873 117.1735,81.3003 116.5995,81.3003 L99.5685,81.3003 C98.9955,81.3003 98.5085,81.7853 98.5085,82.3603 L98.5085,96.6623 L98.5085,119.4703 L98.5085,124.7183 C98.5085,125.2913 98.9935,125.7783 99.5685,125.7783 L116.5995,125.7783 C117.9635,125.7783 117.9655,123.6583 116.5995,123.6583" id="Fill-30" fill="#404041" mask="url(#mask-2)"></path>
                <path d="M59.3592,45.7662 L72.0802,45.7662 L72.0802,72.1602 C72.0802,72.1602 71.3392,79.1552 64.9782,79.2612 C58.6172,79.3672 57.8762,72.1602 57.8762,72.1602 L59.3592,45.7662 Z" id="Fill-31" fill="#0087B5" mask="url(#mask-2)"></path>
                <path d="M59.3592,46.8261 L72.0802,46.8261 C71.7272,46.4731 71.3732,46.1191 71.0202,45.7661 L71.0202,59.9151 L71.0202,68.9101 L71.0202,71.6131 C71.0202,71.7771 71.0212,71.9401 71.0202,72.1041 C71.0192,72.3431 71.0992,71.7851 71.0062,72.2231 C70.4322,74.9351 69.0022,77.5651 66.0292,78.1061 C62.5882,78.7321 60.0982,76.4911 59.2042,73.3411 C59.0932,72.9481 59.0002,72.5491 58.9362,72.1461 C58.8942,71.8831 58.9232,72.3761 58.9412,72.0811 C58.9742,71.5061 59.0052,70.9321 59.0372,70.3581 C59.1922,67.6031 59.3472,64.8491 59.5022,62.0951 C59.8082,56.6521 60.1132,51.2091 60.4192,45.7661 C60.4962,44.4031 58.3752,44.4071 58.2992,45.7661 C58.0202,50.7251 57.7422,55.6841 57.4632,60.6431 C57.2932,63.6811 57.1222,66.7181 56.9512,69.7561 C56.8822,70.9801 56.7392,72.1131 57.0092,73.3141 C57.7032,76.3941 59.7022,79.3511 62.9292,80.1051 C66.8892,81.0311 70.6442,79.0051 72.2512,75.3471 C72.8422,74.0011 73.1402,72.6861 73.1402,71.2361 L73.1402,63.4341 C73.1402,57.6701 73.2452,51.8951 73.1402,46.1311 C73.1382,46.0091 73.1402,45.8881 73.1402,45.7661 C73.1402,45.1931 72.6542,44.7061 72.0802,44.7061 L59.3592,44.7061 C57.9952,44.7061 57.9932,46.8261 59.3592,46.8261" id="Fill-32" fill="#404041" mask="url(#mask-2)"></path>
                <path d="M86.2828,45.7662 L86.2838,72.1602 C86.2838,72.1602 86.6028,79.3672 93.3858,79.2612 C100.1688,79.1552 100.4878,72.1602 100.4878,72.1602 L100.0628,45.7662 L86.2828,45.7662 Z" id="Fill-33" fill="#F0F2F2" mask="url(#mask-2)"></path>
                <path d="M85.2228,45.7662 C85.2228,50.7982 85.2228,55.8302 85.2238,60.8622 L85.2238,69.9842 C85.2238,71.1902 85.1768,72.3502 85.4128,73.5382 C86.0348,76.6772 88.1328,79.4902 91.3998,80.1392 C95.4258,80.9382 99.2748,79.0912 100.8238,75.2672 C101.3438,73.9852 101.5558,72.6862 101.5338,71.3182 C101.4928,68.7242 101.4508,66.1292 101.4088,63.5342 C101.3158,57.7362 101.3148,51.9272 101.1288,46.1312 C101.1248,46.0092 101.1248,45.8882 101.1228,45.7662 C101.1138,45.1932 100.6448,44.7062 100.0628,44.7062 L86.2828,44.7062 C84.9188,44.7062 84.9168,46.8262 86.2828,46.8262 L100.0628,46.8262 C99.7088,46.4732 99.3558,46.1192 99.0028,45.7662 C99.0788,50.4822 99.1548,55.1982 99.2308,59.9152 C99.2798,62.9612 99.3288,66.0072 99.3778,69.0532 C99.3958,70.1862 99.5058,71.3552 99.3978,72.4862 C99.3738,72.7432 99.4388,72.2312 99.3908,72.5302 C99.3738,72.6312 99.3578,72.7332 99.3378,72.8332 C99.2868,73.0772 99.2348,73.3202 99.1688,73.5612 C98.9978,74.1932 98.7638,74.7962 98.4388,75.3652 C97.6288,76.7862 96.3378,77.7292 94.7308,78.0642 C91.2328,78.7952 88.4398,76.8682 87.5808,73.5222 C87.4048,72.8352 87.3538,72.6052 87.3438,72.1322 C87.3328,71.6092 87.3438,71.0842 87.3438,70.5622 L87.3438,62.4202 C87.3428,56.8682 87.3428,51.3172 87.3428,45.7662 C87.3428,44.4022 85.2228,44.4002 85.2228,45.7662" id="Fill-34" fill="#404041" mask="url(#mask-2)"></path>
                <path d="M48.0451,45.781 C47.4161,49.566 46.7861,53.35 46.1571,57.135 C45.3601,61.929 44.5271,66.718 43.7651,71.518 C43.4721,73.36 43.1231,75.036 41.9601,76.58 C40.6601,78.306 38.6831,79.192 36.5431,79.258 C29.9701,79.459 29.9641,71.933 29.9641,71.933 L37.0211,45.763 L48.0451,45.781 Z" id="Fill-35" fill="#0B468C" mask="url(#mask-2)"></path>
                <path d="M47.0229,45.4993 C46.2569,50.1053 45.4969,54.7133 44.7219,59.3183 C44.3189,61.7143 43.9119,64.1103 43.5129,66.5083 C43.1509,68.6893 42.9149,70.9293 42.3889,73.0783 C41.9289,74.9613 40.9499,76.6583 39.1689,77.5563 C37.7779,78.2573 36.0109,78.4273 34.5249,77.9373 C32.6009,77.3023 31.6339,75.4343 31.2259,73.5723 C31.0969,72.9803 31.1389,72.6493 31.0259,72.0393 C30.9779,71.7783 30.9759,72.2553 30.9949,72.1813 C31.0209,72.0773 31.0489,71.9733 31.0789,71.8713 C31.4259,70.6813 31.7249,69.4743 32.0479,68.2783 C33.2149,63.9503 34.3819,59.6233 35.5489,55.2963 C36.3799,52.2123 37.2119,49.1283 38.0429,46.0453 C37.7029,46.3043 37.3619,46.5633 37.0209,46.8233 C40.6959,46.8293 44.3709,46.8353 48.0449,46.8413 C49.4089,46.8433 49.4109,44.7233 48.0449,44.7213 C44.3709,44.7153 40.6959,44.7093 37.0209,44.7033 C36.5579,44.7023 36.1199,45.0323 35.9989,45.4813 C33.9869,52.9423 31.9749,60.4033 29.9629,67.8643 C29.6399,69.0613 29.2709,70.2563 28.9919,71.4643 C28.7779,72.3933 29.0119,73.4403 29.2309,74.3483 C29.7569,76.5373 31.0119,78.6563 33.1119,79.6433 C36.2129,81.0993 40.3029,80.1893 42.5089,77.5823 C44.0109,75.8073 44.4939,73.6253 44.8529,71.3883 C45.3149,68.5093 45.7959,65.6333 46.2809,62.7573 C47.2199,57.1943 48.1419,51.6283 49.0669,46.0633 C49.2889,44.7283 47.2469,44.1543 47.0229,45.4993" id="Fill-36" fill="#404041" mask="url(#mask-2)"></path>
                <polygon id="Fill-37" fill="#009EC4" mask="url(#mask-2)" points="39.005 111.715 94.929 111.715 94.929 81.712 39.005 81.712"></polygon>
                <polygon id="Fill-38" fill="#84D3E5" mask="url(#mask-2)" points="43.09 109.602 64.395 109.602 64.395 84.657 43.09 84.657"></polygon>
                <path d="M64.3954,109.0715 L45.7714,109.0715 L43.0904,109.0715 C43.2674,109.2485 43.4434,109.4245 43.6204,109.6015 L43.6204,87.7565 L43.6204,84.6565 C43.4434,84.8335 43.2674,85.0095 43.0904,85.1865 L61.7144,85.1865 L64.3954,85.1865 C64.2184,85.0095 64.0424,84.8335 63.8654,84.6565 L63.8654,106.5025 L63.8654,109.6015 C63.8654,110.2835 64.9254,110.2845 64.9254,109.6015 L64.9254,87.7565 L64.9254,84.6565 C64.9254,84.3705 64.6824,84.1265 64.3954,84.1265 L45.7714,84.1265 L43.0904,84.1265 C42.8044,84.1265 42.5604,84.3695 42.5604,84.6565 L42.5604,106.5025 L42.5604,109.6015 C42.5604,109.8885 42.8034,110.1315 43.0904,110.1315 L61.7144,110.1315 L64.3954,110.1315 C65.0774,110.1315 65.0784,109.0715 64.3954,109.0715" id="Fill-39" fill="#404041" mask="url(#mask-2)"></path>
                <polygon id="Fill-40" fill="#84D3E5" mask="url(#mask-2)" points="68.245 109.552 88.67 109.552 88.67 84.607 68.245 84.607"></polygon>
                <path d="M70.7895,109.0715 L68.7745,109.0715 L68.7745,87.7565 L68.7745,85.1865 L86.1245,85.1865 L88.1395,85.1865 L88.1395,106.5015 L88.1395,109.0715 L70.7895,109.0715 Z M88.6695,84.1265 L70.7895,84.1265 L68.2445,84.1265 C67.9575,84.1265 67.7145,84.3695 67.7145,84.6565 L67.7145,106.5015 L67.7145,109.6015 C67.7145,109.8885 67.9565,110.1315 68.2445,110.1315 L86.1245,110.1315 L88.6695,110.1315 C88.8145,110.1315 88.9225,110.0775 89.0065,110.0015 C89.0185,109.9925 89.0315,109.9845 89.0425,109.9735 C89.0525,109.9635 89.0595,109.9525 89.0675,109.9405 C89.1445,109.8575 89.1995,109.7485 89.1995,109.6015 L89.1995,87.7565 L89.1995,84.6565 C89.1995,84.3705 88.9565,84.1265 88.6695,84.1265 L88.6695,84.1265 Z" id="Fill-41" fill="#404041" mask="url(#mask-2)"></path>
                <path d="M55.423,103.9972 C55.423,101.8392 53.674,100.0902 51.516,100.0902 C49.634,100.0902 48.063,101.4212 47.693,103.1932 C47.53,103.1812 47.367,103.1732 47.201,103.1732 C45.784,103.1732 44.475,103.6332 43.413,104.4112 C43.081,104.1532 42.666,103.9972 42.212,103.9972 C41.134,103.9972 40.259,104.8722 40.259,105.9512 C40.259,106.6222 40.598,107.2132 41.113,107.5652 C40.902,108.2012 40.785,108.8812 40.785,109.5882 C40.785,113.1322 43.658,116.0042 47.201,116.0042 C50.744,116.0042 53.617,113.1322 53.617,109.5882 C53.617,108.8522 53.491,108.1462 53.263,107.4882 C54.543,106.8462 55.423,105.5262 55.423,103.9972" id="Fill-42" fill="#B2D686" mask="url(#mask-2)"></path>
                <path d="M55.9531,103.9972 C55.8721,101.8002 54.3301,99.8872 52.0931,99.6022 C49.7891,99.3092 47.7311,100.8332 47.1811,103.0522 C47.3521,102.9232 47.5221,102.7932 47.6921,102.6632 C46.0521,102.5632 44.4921,103.0182 43.1451,103.9542 L43.6801,103.9542 C41.0131,102.1942 38.2411,105.9282 40.7381,107.9402 C40.6931,107.7682 40.6471,107.5962 40.6021,107.4242 C39.2581,111.8502 42.4751,116.5442 47.2011,116.5342 C51.9581,116.5242 55.1841,111.8032 53.7741,107.3472 C53.6931,107.5472 53.6121,107.7462 53.5311,107.9462 C55.0271,107.1252 55.8881,105.6962 55.9531,103.9972 C55.9791,103.3152 54.9191,103.3162 54.8931,103.9972 C54.8421,105.3332 54.1631,106.3912 52.9961,107.0302 C52.7971,107.1392 52.6831,107.4112 52.7521,107.6292 C53.9521,111.4192 51.2911,115.4742 47.2011,115.4742 C43.1501,115.4742 40.4781,111.4802 41.6241,107.7062 C41.6741,107.5412 41.6281,107.3032 41.4881,107.1902 C39.9461,105.9482 41.4701,103.7642 43.1451,104.8692 C43.2921,104.9662 43.5341,104.9712 43.6801,104.8692 C44.8881,104.0302 46.2191,103.6332 47.6921,103.7232 C47.9181,103.7372 48.1501,103.5492 48.2031,103.3342 C49.1561,99.4902 54.7461,100.0072 54.8931,103.9972 C54.9181,104.6772 55.9781,104.6802 55.9531,103.9972" id="Fill-43" fill="#404041" mask="url(#mask-2)"></path>
                <path d="M72.4661,110.8338 C72.4661,114.4528 69.5321,117.3868 65.9131,117.3868 C62.2931,117.3868 59.3591,114.4528 59.3591,110.8338 C59.3591,107.2148 62.2931,104.2808 65.9131,104.2808 C69.5321,104.2808 72.4661,107.2148 72.4661,110.8338" id="Fill-44" fill="#B2D686" mask="url(#mask-2)"></path>
                <path d="M71.936,110.8338 C71.864,114.1178 69.246,116.8568 65.913,116.8568 C62.626,116.8568 59.889,114.1188 59.889,110.8338 C59.889,107.5498 62.626,104.8108 65.913,104.8108 C69.246,104.8108 71.864,107.5498 71.936,110.8338 C71.951,111.5148 73.011,111.5168 72.996,110.8338 C72.932,107.9048 71.183,105.2558 68.412,104.2078 C65.61,103.1488 62.35,104.0168 60.449,106.3298 C58.576,108.6078 58.309,111.9078 59.821,114.4478 C61.328,116.9798 64.305,118.3188 67.2,117.7978 C70.571,117.1928 72.922,114.1988 72.996,110.8338 C73.011,110.1518 71.951,110.1518 71.936,110.8338" id="Fill-45" fill="#404041" mask="url(#mask-2)"></path>
                <path d="M90.7215,111.2743 C90.7215,115.1373 87.7875,118.2683 84.1685,118.2683 C80.5485,118.2683 77.6145,115.1373 77.6145,111.2743 C77.6145,107.4113 80.5485,104.2803 84.1685,104.2803 C87.7875,104.2803 90.7215,107.4113 90.7215,111.2743" id="Fill-46" fill="#B2D686" mask="url(#mask-2)"></path>
                <path d="M90.1914,111.2743 C90.1254,114.6053 87.6824,117.7383 84.1684,117.7383 C80.7034,117.7383 78.1444,114.6063 78.1444,111.2743 C78.1444,107.9423 80.7034,104.8103 84.1684,104.8103 C87.6824,104.8103 90.1254,107.9433 90.1914,111.2743 C90.2054,111.9553 91.2654,111.9573 91.2514,111.2743 C91.1904,108.2413 89.5054,105.3433 86.6094,104.2143 C83.7724,103.1073 80.5734,104.1053 78.7174,106.4763 C76.7994,108.9283 76.5654,112.4493 78.0974,115.1533 C79.5564,117.7303 82.4864,119.2253 85.4264,118.6783 C88.9454,118.0233 91.1824,114.7173 91.2514,111.2743 C91.2654,110.5923 90.2054,110.5923 90.1914,111.2743" id="Fill-47" fill="#404041" mask="url(#mask-2)"></path>
                <polygon id="Fill-48" fill="#F0F2F2" mask="url(#mask-2)" points="36.57 124.718 94.929 124.718 94.929 111.715 36.57 111.715"></polygon>
                <path d="M94.9287,111.1849 L75.2367,111.1849 L43.8207,111.1849 L36.5697,111.1849 C36.2827,111.1849 36.0397,111.4279 36.0397,111.7149 L36.0397,124.7179 C36.0397,125.0049 36.2827,125.2479 36.5697,125.2479 L56.2617,125.2479 L87.6777,125.2479 L94.9287,125.2479 C95.2147,125.2479 95.4587,125.0059 95.4587,124.7179 L95.4587,111.7149 C95.4587,111.0329 94.3987,111.0319 94.3987,111.7149 L94.3987,124.7179 C94.5757,124.5419 94.7517,124.3649 94.9287,124.1879 L75.2367,124.1879 L43.8207,124.1879 L36.5697,124.1879 C36.7467,124.3649 36.9227,124.5419 37.0997,124.7179 L37.0997,111.7149 L36.5697,112.2449 L56.2617,112.2449 L87.6777,112.2449 L94.9287,112.2449 C95.6107,112.2449 95.6117,111.1849 94.9287,111.1849" id="Fill-49" fill="#404041" mask="url(#mask-2)"></path>
                <polygon id="Fill-50" fill="#F0F2F2" mask="url(#mask-2)" points="39.698 121.807 54.962 121.807 54.962 113.986 39.698 113.986"></polygon>
                <path d="M54.9622,121.4092 L39.6982,121.4092 C39.8312,121.5422 39.9632,121.6742 40.0962,121.8072 L40.0962,113.9862 C39.9632,114.1182 39.8312,114.2512 39.6982,114.3832 L54.9622,114.3832 C54.8292,114.2512 54.6972,114.1182 54.5642,113.9862 L54.5642,121.8072 C54.5642,122.3182 55.3602,122.3192 55.3602,121.8072 L55.3602,113.9862 C55.3602,113.7712 55.1772,113.5882 54.9622,113.5882 L39.6982,113.5882 C39.4832,113.5882 39.3012,113.7712 39.3012,113.9862 L39.3012,121.8072 C39.3012,122.0212 39.4832,122.2042 39.6982,122.2042 L54.9622,122.2042 C55.4742,122.2042 55.4742,121.4092 54.9622,121.4092" id="Fill-51" fill="#404041" mask="url(#mask-2)"></path>
                <polygon id="Fill-52" fill="#F0F2F2" mask="url(#mask-2)" points="58.117 121.807 73.381 121.807 73.381 113.986 58.117 113.986"></polygon>
                <path d="M73.3811,121.4092 L58.1171,121.4092 C58.2501,121.5422 58.3821,121.6742 58.5151,121.8072 L58.5151,113.9862 C58.3821,114.1182 58.2501,114.2512 58.1171,114.3832 L73.3811,114.3832 C73.2481,114.2512 73.1161,114.1182 72.9831,113.9862 L72.9831,121.8072 C72.9831,122.3182 73.7781,122.3192 73.7781,121.8072 L73.7781,113.9862 C73.7781,113.7712 73.5961,113.5882 73.3811,113.5882 L58.1171,113.5882 C57.9021,113.5882 57.7201,113.7712 57.7201,113.9862 L57.7201,121.8072 C57.7201,122.0212 57.9021,122.2042 58.1171,122.2042 L73.3811,122.2042 C73.8931,122.2042 73.8931,121.4092 73.3811,121.4092" id="Fill-53" fill="#404041" mask="url(#mask-2)"></path>
                <polygon id="Fill-54" fill="#F0F2F2" mask="url(#mask-2)" points="76.536 121.807 91.8 121.807 91.8 113.986 76.536 113.986"></polygon>
                <path d="M91.7999,121.4092 L76.5359,121.4092 C76.6689,121.5422 76.8009,121.6742 76.9339,121.8072 L76.9339,113.9862 C76.8009,114.1182 76.6689,114.2512 76.5359,114.3832 L91.7999,114.3832 C91.6679,114.2512 91.5349,114.1182 91.4029,113.9862 L91.4029,121.8072 C91.4029,122.3182 92.1979,122.3192 92.1979,121.8072 L92.1979,113.9862 C92.1979,113.7712 92.0149,113.5882 91.7999,113.5882 L76.5359,113.5882 C76.3209,113.5882 76.1389,113.7712 76.1389,113.9862 L76.1389,121.8072 C76.1389,122.0212 76.3209,122.2042 76.5359,122.2042 L91.7999,122.2042 C92.3119,122.2042 92.3119,121.4092 91.7999,121.4092" id="Fill-55" fill="#404041" mask="url(#mask-2)"></path>
                <polygon id="Fill-56" fill="#986733" mask="url(#mask-2)" points="101.954 122.066 114.462 122.066 114.462 109.942 101.954 109.942"></polygon>
                <path d="M114.4624,121.536 L101.9544,121.536 C102.1314,121.713 102.3084,121.889 102.4844,122.066 L102.4844,109.942 C102.3084,110.119 102.1314,110.296 101.9544,110.472 L114.4624,110.472 C114.2854,110.296 114.1094,110.119 113.9324,109.942 L113.9324,122.066 C113.9324,122.748 114.9924,122.749 114.9924,122.066 L114.9924,109.942 C114.9924,109.656 114.7494,109.412 114.4624,109.412 L101.9544,109.412 C101.6684,109.412 101.4244,109.655 101.4244,109.942 L101.4244,122.066 C101.4244,122.352 101.6674,122.596 101.9544,122.596 L114.4624,122.596 C115.1444,122.596 115.1454,121.536 114.4624,121.536" id="Fill-57" fill="#404041" mask="url(#mask-2)"></path>
                <polygon id="Fill-58" fill="#84D3E5" mask="url(#mask-2)" points="101.954 87.059 114.462 87.059 114.462 84.656 101.954 84.656"></polygon>
                <path d="M114.4624,86.5293 L101.9544,86.5293 C102.1314,86.7063 102.3084,86.8823 102.4844,87.0593 L102.4844,84.6563 C102.3084,84.8333 102.1314,85.0103 101.9544,85.1863 L114.4624,85.1863 C114.2854,85.0103 114.1094,84.8333 113.9324,84.6563 L113.9324,87.0593 C113.9324,87.7413 114.9924,87.7423 114.9924,87.0593 L114.9924,84.6563 C114.9924,84.3703 114.7494,84.1263 114.4624,84.1263 L101.9544,84.1263 C101.6684,84.1263 101.4244,84.3693 101.4244,84.6563 L101.4244,87.0593 C101.4244,87.3463 101.6674,87.5893 101.9544,87.5893 L114.4624,87.5893 C115.1444,87.5893 115.1454,86.5293 114.4624,86.5293" id="Fill-59" fill="#404041" mask="url(#mask-2)"></path>
                <polygon id="Fill-60" fill="#84D3E5" mask="url(#mask-2)" points="101.954 101.634 114.462 101.634 114.462 88.544 101.954 88.544"></polygon>
                <path d="M114.4624,101.1038 L101.9544,101.1038 C102.1314,101.2808 102.3084,101.4568 102.4844,101.6338 L102.4844,88.5428 C102.3084,88.7198 102.1314,88.8968 101.9544,89.0738 L114.4624,89.0738 C114.2854,88.8968 114.1094,88.7198 113.9324,88.5428 L113.9324,101.6338 C113.9324,102.3158 114.9924,102.3168 114.9924,101.6338 L114.9924,88.5428 C114.9924,88.2568 114.7494,88.0138 114.4624,88.0138 L101.9544,88.0138 C101.6684,88.0138 101.4244,88.2558 101.4244,88.5428 L101.4244,101.6338 C101.4244,101.9198 101.6674,102.1638 101.9544,102.1638 L114.4624,102.1638 C115.1444,102.1638 115.1454,101.1038 114.4624,101.1038" id="Fill-61" fill="#404041" mask="url(#mask-2)"></path>
                <path d="M113.6586,107.3404 L113.6586,107.3404 C113.3816,107.3404 113.1546,107.1134 113.1546,106.8364 L113.1546,103.5864 C113.1546,103.3094 113.3816,103.0824 113.6586,103.0824 C113.9356,103.0824 114.1626,103.3094 114.1626,103.5864 L114.1626,106.8374 C114.1626,107.1144 113.9356,107.3404 113.6586,107.3404" id="Fill-62" fill="#F0F2F2" mask="url(#mask-2)"></path>
                <path d="M113.6586,103.2947 C113.4976,103.2947 113.3666,103.4257 113.3666,103.5857 L113.3666,106.8367 C113.3666,106.9977 113.4976,107.1287 113.6586,107.1287 C113.8196,107.1287 113.9496,106.9977 113.9496,106.8367 L113.9496,103.5857 C113.9496,103.4257 113.8196,103.2947 113.6586,103.2947 M113.6586,107.5527 C113.2646,107.5527 112.9426,107.2317 112.9426,106.8367 L112.9426,103.5857 C112.9426,103.1917 113.2646,102.8707 113.6586,102.8707 C114.0526,102.8707 114.3736,103.1917 114.3736,103.5857 L114.3736,106.8367 C114.3736,107.2317 114.0526,107.5527 113.6586,107.5527" id="Fill-63" fill="#404041" mask="url(#mask-2)"></path>
                <polygon id="Fill-64" fill="#009EC4" mask="url(#mask-2)" points="31.201 29.157 127.163 29.157 127.163 24.803 31.201 24.803"></polygon>
                <path d="M127.1633,23.7431 L117.6263,23.7431 L94.7223,23.7431 L67.0063,23.7431 L43.0363,23.7431 C39.1583,23.7431 35.2433,23.5841 31.3683,23.7431 C31.3123,23.7451 31.2563,23.7431 31.2013,23.7431 C30.6283,23.7431 30.1413,24.2291 30.1413,24.8031 L30.1413,29.1571 C30.1413,29.7301 30.6263,30.2171 31.2013,30.2171 L40.7373,30.2171 L63.6423,30.2171 L91.3583,30.2171 L115.3283,30.2171 C119.2053,30.2171 123.1203,30.3761 126.9963,30.2171 C127.0513,30.2151 127.1073,30.2171 127.1633,30.2171 C127.7363,30.2171 128.2233,29.7311 128.2233,29.1571 L128.2233,24.8031 C128.2233,23.4391 126.1033,23.4371 126.1033,24.8031 L126.1033,29.1571 L127.1633,28.0971 L117.6263,28.0971 L94.7223,28.0971 L67.0063,28.0971 L43.0363,28.0971 L35.1073,28.0971 C33.9143,28.0971 32.5503,27.9111 31.3683,28.0971 C31.3153,28.1051 31.2553,28.0971 31.2013,28.0971 C31.5543,28.4501 31.9073,28.8041 32.2613,29.1571 L32.2613,24.8031 C31.9073,25.1561 31.5543,25.5101 31.2013,25.8631 L40.7373,25.8631 L63.6423,25.8631 L91.3583,25.8631 L115.3283,25.8631 C119.2053,25.8631 123.1203,26.0221 126.9963,25.8631 C127.0513,25.8611 127.1073,25.8631 127.1633,25.8631 C128.5273,25.8631 128.5293,23.7431 127.1633,23.7431" id="Fill-65" fill="#404041" mask="url(#mask-2)"></path>
                <path d="M36.3188,79.2616 C40.2408,79.2616 43.4208,76.0816 43.4208,72.1596 C43.4208,76.0816 46.6008,79.2616 50.5228,79.2616 C54.4448,79.2616 57.6248,76.0816 57.6248,72.1596 C57.6248,76.0816 60.8038,79.2616 64.7258,79.2616 C68.6488,79.2616 71.8278,76.0816 71.8278,72.1596 C71.8278,76.0816 75.0078,79.2616 78.9298,79.2616 C82.8528,79.2616 86.0318,76.0816 86.0318,72.1596 C86.0318,76.0816 89.2118,79.2616 93.1338,79.2616 C97.0558,79.2616 100.2358,76.0816 100.2358,72.1596 C100.2358,76.0816 103.4148,79.2616 107.3378,79.2616 C111.2598,79.2616 114.4398,76.0816 114.4398,72.1596 C114.4398,76.0816 117.6188,79.2616 121.5418,79.2616 C125.4638,79.2616 128.6428,76.0816 128.6428,72.1596 L128.5358,71.9476 L29.7268,71.9476 C29.7268,71.9476 29.2708,79.2616 36.3188,79.2616" id="Fill-66" fill="#231F1F" mask="url(#mask-2)"></path>
                <polygon id="Fill-67" fill="#F0F2F2" mask="url(#mask-2)" points="29.973 130.459 129.106 130.459 129.106 124.719 29.973 124.719"></polygon>
                <path d="M31.0333,130.4587 L31.0333,124.7187 C30.6803,125.0717 30.3263,125.4247 29.9733,125.7787 L39.8263,125.7787 L63.4913,125.7787 L92.1253,125.7787 L116.8873,125.7787 L125.0523,125.7787 C126.2943,125.7787 127.7023,125.9647 128.9343,125.7787 C128.9893,125.7697 129.0503,125.7787 129.1063,125.7787 C128.7523,125.4247 128.3993,125.0717 128.0463,124.7187 L128.0463,130.4587 C128.0463,131.8227 130.1663,131.8247 130.1663,130.4587 L130.1663,124.7187 C130.1663,124.1457 129.6803,123.6587 129.1063,123.6587 L119.2533,123.6587 L95.5883,123.6587 L66.9543,123.6587 L42.1923,123.6587 C38.1883,123.6587 34.1473,123.4987 30.1453,123.6587 C30.0883,123.6607 30.0303,123.6587 29.9733,123.6587 C29.4003,123.6587 28.9133,124.1437 28.9133,124.7187 L28.9133,130.4587 C28.9133,131.8227 31.0333,131.8247 31.0333,130.4587" id="Fill-68" fill="#404041" mask="url(#mask-2)"></path>
                <polygon id="Fill-69" fill="#F0F2F2" mask="url(#mask-2)" points="51.516 43.247 105.468 43.247 105.468 32.274 51.516 32.274"></polygon>
                <path d="M105.4677,42.7168 L87.2467,42.7168 L58.1947,42.7168 L51.5157,42.7168 C51.6927,42.8938 51.8697,43.0698 52.0457,43.2468 L52.0457,32.2738 C51.8697,32.4498 51.6927,32.6268 51.5157,32.8038 L69.7377,32.8038 L98.7887,32.8038 L105.4677,32.8038 C105.2907,32.6268 105.1147,32.4498 104.9377,32.2738 L104.9377,43.2468 C104.9377,43.9288 105.9977,43.9298 105.9977,43.2468 L105.9977,32.2738 C105.9977,31.9868 105.7547,31.7438 105.4677,31.7438 L87.2467,31.7438 L58.1947,31.7438 L51.5157,31.7438 C51.2297,31.7438 50.9857,31.9868 50.9857,32.2738 L50.9857,43.2468 C50.9857,43.5338 51.2287,43.7768 51.5157,43.7768 L69.7377,43.7768 L98.7887,43.7768 L105.4677,43.7768 C106.1497,43.7768 106.1507,42.7168 105.4677,42.7168" id="Fill-70" fill="#404041" mask="url(#mask-2)"></path>
                <path d="M47.2753,97.9131 C51.3923,94.9511 55.5093,91.9891 59.6263,89.0271 C60.1753,88.6321 59.6473,87.7121 59.0913,88.1121 L46.7403,96.9981 C46.1913,97.3931 46.7203,98.3121 47.2753,97.9131" id="Fill-71" fill="#F0F2F2" mask="url(#mask-2)"></path>
                <path d="M71.2975,97.1987 C75.4145,94.2367 79.5315,91.2747 83.6495,88.3127 C84.1975,87.9177 83.6695,86.9977 83.1135,87.3977 C78.9965,90.3597 74.8795,93.3217 70.7625,96.2837 C70.2135,96.6787 70.7425,97.5977 71.2975,97.1987" id="Fill-72" fill="#F0F2F2" mask="url(#mask-2)"></path>
                <path d="M52.058,99.008 C54.833,97.011 57.609,95.015 60.384,93.018 C60.933,92.623 60.404,91.703 59.849,92.103 C57.074,94.099 54.298,96.096 51.523,98.093 C50.974,98.488 51.503,99.407 52.058,99.008" id="Fill-73" fill="#F0F2F2" mask="url(#mask-2)"></path>
                <path d="M76.3454,99.008 C79.1204,97.011 81.8964,95.015 84.6714,93.018 C85.2204,92.623 84.6914,91.703 84.1364,92.103 C81.3614,94.099 78.5854,96.096 75.8104,98.093 C75.2614,98.488 75.7904,99.407 76.3454,99.008" id="Fill-74" fill="#F0F2F2" mask="url(#mask-2)"></path>
                <path d="M67.2507,37.0459 L67.8577,37.0459 C68.0697,37.0459 68.2487,36.9729 68.3937,36.8269 C68.5397,36.6809 68.6127,36.5059 68.6127,36.2999 C68.6127,36.0879 68.5397,35.9089 68.3937,35.7629 C68.2487,35.6169 68.0697,35.5439 67.8577,35.5439 L67.2507,35.5439 L67.2507,37.0459 Z M65.7497,41.5699 L65.7497,34.0329 L67.8577,34.0329 C68.1687,34.0329 68.4617,34.0929 68.7367,34.2119 C69.0127,34.3309 69.2507,34.4939 69.4527,34.6989 C69.6547,34.9049 69.8157,35.1449 69.9357,35.4199 C70.0547,35.6949 70.1147,35.9889 70.1147,36.2999 C70.1147,36.6119 70.0567,36.9049 69.9407,37.1799 C69.8247,37.4549 69.6637,37.6939 69.4577,37.8959 C69.2527,38.0979 69.0137,38.2589 68.7417,38.3779 C68.4707,38.4979 68.1787,38.5569 67.8667,38.5569 L67.2507,38.5569 L67.2507,41.5699 L65.7497,41.5699 Z" id="Fill-75" fill="#EF524E" mask="url(#mask-2)"></path>
                <polygon id="Fill-76" fill="#EF524E" mask="url(#mask-2)" points="70.81 41.57 72.311 41.57 72.311 34.033 70.81 34.033"></polygon>
                <polygon id="Fill-77" fill="#EF524E" mask="url(#mask-2)" points="76.1996 35.5443 73.1076 35.5443 73.1076 34.0333 78.7846 34.0333 75.3846 40.0583 78.4766 40.0583 78.4766 41.5703 72.8086 41.5703"></polygon>
                <polygon id="Fill-78" fill="#EF524E" mask="url(#mask-2)" points="82.5733 35.5443 79.4813 35.5443 79.4813 34.0333 85.1583 34.0333 81.7583 40.0583 84.8503 40.0583 84.8503 41.5703 79.1823 41.5703"></polygon>
                <path d="M88.8773,36.2504 L88.2703,37.9504 L89.4933,37.9504 L88.8773,36.2504 Z M90.8063,41.5704 L90.0403,39.4624 L87.7243,39.4624 L86.9583,41.5704 L85.3573,41.5704 L88.0823,34.0334 L89.6823,34.0334 L92.4073,41.5704 L90.8063,41.5704 Z" id="Fill-79" fill="#EF524E" mask="url(#mask-2)"></path>
                <path d="M15.1197,134.0916 L16.8827,111.7716 C13.6467,111.7716 10.8877,114.1146 10.3637,117.3076 L8.1247,127.8736 C8.0277,127.8706 7.9317,127.8666 7.8337,127.8666 C3.7607,127.8666 0.4587,131.1686 0.4587,135.2426 L2.0177,135.3166 L7.2667,131.9216 L7.0307,133.0366 L14.9767,135.8986 L15.0357,135.1556 L15.2097,135.2426 C15.2097,134.8506 15.1787,134.4666 15.1197,134.0916" id="Fill-80" fill="#EF524E" mask="url(#mask-2)"></path>
                <path d="M7.5613,132.7411 L14.5683,135.2651 L14.6333,134.4421 L14.7103,134.4801 C14.6983,134.3741 14.6833,134.2681 14.6673,134.1621 L14.6593,134.1091 L14.6633,134.0551 L16.3863,112.2491 C13.5813,112.4721 11.2783,114.5611 10.8153,117.3821 L8.4923,128.3481 L8.1063,128.3311 C8.0153,128.3281 7.9253,128.3241 7.8343,128.3241 C4.1663,128.3241 1.1553,131.1941 0.9293,134.8061 L1.8923,134.8521 L7.9433,130.9381 L7.5613,132.7411 Z M15.3863,136.5331 L6.4993,133.3331 L6.5903,132.9041 L2.1433,135.7821 L0.0003,135.6791 L0.0003,135.2421 C0.0003,130.9491 3.4713,127.4511 7.7553,127.4091 L9.9153,117.2131 C10.4743,113.8031 13.4063,111.3131 16.8823,111.3131 L17.3783,111.3131 L15.5803,134.0751 C15.6383,134.4591 15.6673,134.8521 15.6673,135.2421 L15.6673,135.9831 L15.4383,135.8691 L15.3863,136.5331 Z" id="Fill-81" fill="#444445" mask="url(#mask-2)"></path>
                <path d="M41.4813,122.7424 L24.9463,122.7424 L23.4303,124.3504 C23.0383,124.5494 23.1793,125.1454 23.6183,125.1454 C26.4073,125.1454 28.6683,127.4224 28.6683,130.2304 C28.6683,133.0394 26.4073,135.3154 23.6183,135.3154 L13.4243,135.3154 L13.9553,137.7284 L34.6113,137.7284 L38.2743,133.6364 L39.5353,132.5254 L39.4873,132.7694 L44.0823,133.0704 L47.0503,136.7514 L50.2313,136.7514 C52.1363,136.7514 53.0903,134.4324 51.7433,133.0754 C51.7433,133.0754 50.5053,130.9784 47.7213,127.7014 C45.3273,124.8844 41.4813,122.7424 41.4813,122.7424" id="Fill-82" fill="#EF524E" mask="url(#mask-2)"></path>
                <path d="M14.3233,137.2704 L34.4063,137.2704 L37.9323,133.3314 L40.2503,131.2854 L40.0383,132.3464 L44.3123,132.6274 L47.2693,136.2934 L50.2313,136.2934 C51.0553,136.2934 51.5713,135.7564 51.7803,135.2544 C51.9923,134.7464 52.0073,133.9914 51.4183,133.3984 L51.3483,133.3084 C51.3363,133.2884 50.0923,131.2004 47.3723,127.9984 C45.2713,125.5264 41.9773,123.5584 41.3593,123.2004 L25.1433,123.2004 L23.6373,124.7594 C23.6803,124.7584 23.7233,124.7574 23.7653,124.7574 C26.7253,124.7574 29.1263,127.2174 29.1263,130.2304 C29.1263,133.2874 26.6553,135.7734 23.6183,135.7734 L13.9933,135.7734 L14.3233,137.2704 Z M34.8163,138.1864 L13.5883,138.1864 L12.8543,134.8574 L23.6183,134.8574 C26.1503,134.8574 28.2103,132.7824 28.2103,130.2304 C28.2103,127.6794 26.1503,125.6034 23.6183,125.6034 C23.2053,125.6034 22.8633,125.3324 22.7673,124.9304 C22.6783,124.5574 22.8283,124.1894 23.1423,123.9884 L24.7483,122.2844 L41.6003,122.2844 L41.7043,122.3424 C41.8643,122.4314 45.6513,124.5574 48.0693,127.4054 C50.6503,130.4424 51.9033,132.4554 52.1083,132.7944 C52.8343,133.5564 53.0333,134.6284 52.6263,135.6064 C52.2143,136.5944 51.2973,137.2094 50.2313,137.2094 L46.8323,137.2094 L43.8523,133.5144 L39.4343,133.2244 L38.5763,133.9804 L34.8163,138.1864 Z" id="Fill-83" fill="#444445" mask="url(#mask-2)"></path>
                <path d="M41.4813,124.2172 L23.3463,124.2172 C23.3463,121.7992 25.6213,121.0292 28.4273,121.0292 L37.7813,121.0292 C39.8243,121.0292 41.4813,122.4562 41.4813,124.2172" id="Fill-84" fill="#C2B59B" mask="url(#mask-2)"></path>
                <path d="M24.1747,123.4844 L40.6137,123.4844 C40.2367,122.4874 39.1097,121.7624 37.7817,121.7624 L28.4277,121.7624 C25.2957,121.7624 24.4197,122.7214 24.1747,123.4844 L24.1747,123.4844 Z M42.2137,124.9504 L22.6147,124.9504 L22.6147,124.2174 C22.6147,122.7534 23.3687,120.2964 28.4277,120.2964 L37.7817,120.2964 C40.2257,120.2964 42.2137,122.0554 42.2137,124.2174 L42.2137,124.9504 Z" id="Fill-85" fill="#424243" mask="url(#mask-2)"></path>
                <path d="M51.8117,124.2627 L41.2437,124.2627 C40.6817,124.2627 40.2267,123.8077 40.2267,123.2457 C40.2267,122.6847 40.6817,122.2297 41.2437,122.2297 L51.8117,122.2297 C52.3727,122.2297 52.8287,122.6847 52.8287,123.2457 C52.8287,123.8077 52.3727,124.2627 51.8117,124.2627" id="Fill-86" fill="#C2B59B" mask="url(#mask-2)"></path>
                <path d="M41.2432,122.9624 C41.0872,122.9624 40.9592,123.0894 40.9592,123.2464 C40.9592,123.4024 41.0872,123.5304 41.2432,123.5304 L51.8112,123.5304 C51.9682,123.5304 52.0962,123.4024 52.0962,123.2464 C52.0962,123.0894 51.9682,122.9624 51.8112,122.9624 L41.2432,122.9624 Z M51.8112,124.9954 L41.2432,124.9954 C40.2792,124.9954 39.4942,124.2104 39.4942,123.2464 C39.4942,122.2814 40.2792,121.4964 41.2432,121.4964 L51.8112,121.4964 C52.7762,121.4964 53.5612,122.2814 53.5612,123.2464 C53.5612,124.2104 52.7762,124.9954 51.8112,124.9954 L51.8112,124.9954 Z" id="Fill-87" fill="#424243" mask="url(#mask-2)"></path>
                <path d="M50.8565,132.3946 L28.5965,132.3946 L28.7895,131.9136 C28.7965,131.8966 28.8015,131.8796 28.8055,131.8626 L28.9195,131.3826 L50.1625,131.3826 L50.8565,132.3946 Z" id="Fill-88" fill="#FFFFFF" mask="url(#mask-2)"></path>
                <path d="M41.4813,141.5311 C39.3813,141.5311 37.6783,139.8281 37.6783,137.7281 C37.6783,135.6281 39.3813,133.9251 41.4813,133.9251 C43.5813,133.9251 45.2843,135.6281 45.2843,137.7281 C45.2843,139.8281 43.5813,141.5311 41.4813,141.5311 M41.4813,130.8581 C37.6873,130.8581 34.6113,133.9341 34.6113,137.7281 C34.6113,141.5221 37.6873,144.5981 41.4813,144.5981 C45.2753,144.5981 48.3513,141.5221 48.3513,137.7281 C48.3513,133.9341 45.2753,130.8581 41.4813,130.8581" id="Fill-89" fill="#6D6D6D" mask="url(#mask-2)"></path>
                <path d="M41.4816,134.6579 C39.7886,134.6579 38.4106,136.0349 38.4106,137.7279 C38.4106,139.4209 39.7886,140.7979 41.4816,140.7979 C43.1746,140.7979 44.5516,139.4209 44.5516,137.7279 C44.5516,136.0349 43.1746,134.6579 41.4816,134.6579 M41.4816,142.2639 C38.9806,142.2639 36.9456,140.2289 36.9456,137.7279 C36.9456,135.2269 38.9806,133.1919 41.4816,133.1919 C43.9826,133.1919 46.0166,135.2269 46.0166,137.7279 C46.0166,140.2289 43.9826,142.2639 41.4816,142.2639 M41.4816,131.5909 C38.0966,131.5909 35.3436,134.3439 35.3436,137.7279 C35.3436,141.1129 38.0966,143.8649 41.4816,143.8649 C44.8656,143.8649 47.6186,141.1129 47.6186,137.7279 C47.6186,134.3439 44.8656,131.5909 41.4816,131.5909 M41.4816,145.3309 C37.2896,145.3309 33.8786,141.9199 33.8786,137.7279 C33.8786,133.5359 37.2896,130.1259 41.4816,130.1259 C45.6736,130.1259 49.0836,133.5359 49.0836,137.7279 C49.0836,141.9199 45.6736,145.3309 41.4816,145.3309" id="Fill-90" fill="#424243" mask="url(#mask-2)"></path>
                <path d="M8.3396,141.5311 C6.2396,141.5311 4.5366,139.8281 4.5366,137.7281 C4.5366,135.6281 6.2396,133.9251 8.3396,133.9251 C10.4396,133.9251 12.1426,135.6281 12.1426,137.7281 C12.1426,139.8281 10.4396,141.5311 8.3396,141.5311 M8.3396,130.8581 C4.5456,130.8581 1.4696,133.9341 1.4696,137.7281 C1.4696,141.5221 4.5456,144.5981 8.3396,144.5981 C12.1336,144.5981 15.2096,141.5221 15.2096,137.7281 C15.2096,133.9341 12.1336,130.8581 8.3396,130.8581" id="Fill-91" fill="#6D6D6D" mask="url(#mask-2)"></path>
                <path d="M8.3397,134.6579 C6.6467,134.6579 5.2687,136.0349 5.2687,137.7279 C5.2687,139.4209 6.6467,140.7979 8.3397,140.7979 C10.0327,140.7979 11.4097,139.4209 11.4097,137.7279 C11.4097,136.0349 10.0327,134.6579 8.3397,134.6579 M8.3397,142.2639 C5.8387,142.2639 3.8037,140.2289 3.8037,137.7279 C3.8037,135.2269 5.8387,133.1919 8.3397,133.1919 C10.8407,133.1919 12.8747,135.2269 12.8747,137.7279 C12.8747,140.2289 10.8407,142.2639 8.3397,142.2639 M8.3397,131.5909 C4.9547,131.5909 2.2017,134.3439 2.2017,137.7279 C2.2017,141.1129 4.9547,143.8649 8.3397,143.8649 C11.7237,143.8649 14.4767,141.1129 14.4767,137.7279 C14.4767,134.3439 11.7237,131.5909 8.3397,131.5909 M8.3397,145.3309 C4.1477,145.3309 0.7367,141.9199 0.7367,137.7279 C0.7367,133.5359 4.1477,130.1259 8.3397,130.1259 C12.5317,130.1259 15.9417,133.5359 15.9417,137.7279 C15.9417,141.9199 12.5317,145.3309 8.3397,145.3309" id="Fill-92" fill="#424243" mask="url(#mask-2)"></path>
                <path d="M14.5263,113.1348 L12.3213,113.1348 C10.6803,113.1348 9.3503,111.8048 9.3503,110.1638 C9.3503,108.5228 10.6803,107.1918 12.3213,107.1918 L14.5263,107.1918 C16.1673,107.1918 17.4973,108.5228 17.4973,110.1638 C17.4973,111.8048 16.1673,113.1348 14.5263,113.1348" id="Fill-93" fill="#EF524E" mask="url(#mask-2)"></path>
                <path d="M12.3213,107.6499 C10.9363,107.6499 9.8083,108.7779 9.8083,110.1639 C9.8083,111.5489 10.9363,112.6769 12.3213,112.6769 L14.5263,112.6769 C15.9123,112.6769 17.0393,111.5489 17.0393,110.1639 C17.0393,108.7779 15.9123,107.6499 14.5263,107.6499 L12.3213,107.6499 Z M14.5263,113.5929 L12.3213,113.5929 C10.4303,113.5929 8.8923,112.0539 8.8923,110.1639 C8.8923,108.2729 10.4303,106.7339 12.3213,106.7339 L14.5263,106.7339 C16.4173,106.7339 17.9553,108.2729 17.9553,110.1639 C17.9553,112.0539 16.4173,113.5929 14.5263,113.5929 L14.5263,113.5929 Z" id="Fill-94" fill="#444445" mask="url(#mask-2)"></path>
                <polygon id="Fill-95" fill="#FFFFFF" mask="url(#mask-2)" points="8.5981 127.5362 15.2731 127.5362 15.3371 126.5722 8.8011 126.5722"></polygon>
                <polygon id="Fill-96" fill="#F0F2F2" mask="url(#mask-2)" points="40.412 122.229 55.093 122.229 55.093 107.548 40.412 107.548"></polygon>
                <path d="M40.87,121.772 L54.635,121.772 L54.635,108.006 L40.87,108.006 L40.87,121.772 Z M39.954,122.688 L55.551,122.688 L55.551,107.091 L39.954,107.091 L39.954,122.688 Z" id="Fill-97" fill="#444445" mask="url(#mask-2)"></path>
                <polygon id="Fill-98" fill="#00C5F5" mask="url(#mask-2)" points="40.732 119.256 54.71 119.256 54.71 118.011 40.732 118.011"></polygon>
                <path d="M14.8812,110.7963 C14.8812,111.1983 14.5552,111.5253 14.1522,111.5253 C13.7502,111.5253 13.4242,111.1983 13.4242,110.7963 C13.4242,110.3943 13.7502,110.0673 14.1522,110.0673 C14.5552,110.0673 14.8812,110.3943 14.8812,110.7963" id="Fill-99" fill="#808182" mask="url(#mask-2)"></path>
                <path d="M14.1526,110.5257 C14.0036,110.5257 13.8816,110.6467 13.8816,110.7957 C13.8816,110.9457 14.0036,111.0667 14.1526,111.0667 C14.3016,111.0667 14.4236,110.9457 14.4236,110.7957 C14.4236,110.6467 14.3016,110.5257 14.1526,110.5257 M14.1526,111.9827 C13.4976,111.9827 12.9656,111.4507 12.9656,110.7957 C12.9656,110.1417 13.4976,109.6097 14.1526,109.6097 C14.8076,109.6097 15.3396,110.1417 15.3396,110.7957 C15.3396,111.4507 14.8076,111.9827 14.1526,111.9827" id="Fill-100" fill="#424243" mask="url(#mask-2)"></path>
                <path d="M43.0033,112.9903 L43.2583,112.9903 C43.3473,112.9903 43.4223,112.9593 43.4843,112.8983 C43.5453,112.8373 43.5753,112.7633 43.5753,112.6773 C43.5753,112.5873 43.5453,112.5123 43.4843,112.4513 C43.4223,112.3903 43.3473,112.3593 43.2583,112.3593 L43.0033,112.3593 L43.0033,112.9903 Z M42.3723,114.8923 L42.3723,111.7243 L43.2583,111.7243 C43.3893,111.7243 43.5123,111.7493 43.6283,111.7993 C43.7433,111.8493 43.8443,111.9173 43.9293,112.0043 C44.0143,112.0903 44.0813,112.1913 44.1313,112.3073 C44.1823,112.4223 44.2073,112.5463 44.2073,112.6773 C44.2073,112.8083 44.1823,112.9313 44.1333,113.0463 C44.0853,113.1623 44.0173,113.2623 43.9313,113.3473 C43.8443,113.4323 43.7443,113.5003 43.6303,113.5503 C43.5163,113.6003 43.3933,113.6253 43.2623,113.6253 L43.0033,113.6253 L43.0033,114.8923 L42.3723,114.8923 Z" id="Fill-101" fill="#EF524E" mask="url(#mask-2)"></path>
                <polygon id="Fill-102" fill="#EF524E" mask="url(#mask-2)" points="44.499 114.892 45.13 114.892 45.13 111.724 44.499 111.724"></polygon>
                <polygon id="Fill-103" fill="#EF524E" mask="url(#mask-2)" points="46.7646 112.3593 45.4646 112.3593 45.4646 111.7243 47.8516 111.7243 46.4216 114.2563 47.7216 114.2563 47.7216 114.8923 45.3396 114.8923"></polygon>
                <polygon id="Fill-104" fill="#EF524E" mask="url(#mask-2)" points="49.4435 112.3593 48.1435 112.3593 48.1435 111.7243 50.5305 111.7243 49.1005 114.2563 50.4005 114.2563 50.4005 114.8923 48.0185 114.8923"></polygon>
                <path d="M52.0932,112.656 L51.8382,113.371 L52.3522,113.371 L52.0932,112.656 Z M52.9042,114.892 L52.5822,114.006 L51.6082,114.006 L51.2862,114.892 L50.6132,114.892 L51.7592,111.724 L52.4312,111.724 L53.5772,114.892 L52.9042,114.892 Z" id="Fill-105" fill="#EF524E" mask="url(#mask-2)"></path>
                <path d="M146.1416,126.0948 L138.7296,126.0948 C137.4476,126.0948 136.4256,125.0228 136.4866,123.7418 L137.2386,108.0248 C137.3126,106.4808 138.5866,105.2658 140.1326,105.2658 L144.7386,105.2658 C146.2856,105.2658 147.5596,106.4808 147.6326,108.0248 L148.3846,123.7418 C148.4466,125.0228 147.4246,126.0948 146.1416,126.0948" id="Fill-106" fill="#EF524E" mask="url(#mask-2)"></path>
                <path d="M140.1325,105.7241 C138.8285,105.7241 137.7585,106.7441 137.6965,108.0471 L136.9445,123.7631 C136.9205,124.2561 137.0955,124.7251 137.4365,125.0821 C137.7765,125.4401 138.2365,125.6371 138.7305,125.6371 L146.1415,125.6371 C146.6355,125.6371 147.0955,125.4401 147.4355,125.0831 C147.7765,124.7261 147.9515,124.2561 147.9275,123.7631 L147.1755,108.0471 C147.1135,106.7441 146.0425,105.7241 144.7385,105.7241 L140.1325,105.7241 Z M146.1415,126.5521 L138.7305,126.5521 C137.9835,126.5521 137.2875,126.2551 136.7735,125.7141 C136.2575,125.1741 135.9935,124.4651 136.0295,123.7191 L136.7805,108.0031 C136.8675,106.2121 138.3385,104.8081 140.1325,104.8081 L144.7385,104.8081 C146.5325,104.8081 148.0045,106.2121 148.0915,108.0031 L148.8435,123.7201 C148.8785,124.4661 148.6135,125.1751 148.0985,125.7151 C147.5825,126.2551 146.8885,126.5521 146.1415,126.5521 L146.1415,126.5521 Z" id="Fill-107" fill="#444445" mask="url(#mask-2)"></path>
                <path d="M146.1605,103.8336 C146.1605,105.8906 144.4925,107.5586 142.4355,107.5586 C140.3785,107.5586 138.7115,105.8906 138.7115,103.8336 C138.7115,101.7766 140.3785,100.1086 142.4355,100.1086 C144.4925,100.1086 146.1605,101.7766 146.1605,103.8336" id="Fill-108" fill="#EF524E" mask="url(#mask-2)"></path>
                <path d="M142.4362,100.5669 C140.6342,100.5669 139.1692,102.0329 139.1692,103.8339 C139.1692,105.6349 140.6342,107.1009 142.4362,107.1009 C144.2372,107.1009 145.7022,105.6349 145.7022,103.8339 C145.7022,102.0329 144.2372,100.5669 142.4362,100.5669 M142.4362,108.0159 C140.1302,108.0159 138.2532,106.1399 138.2532,103.8339 C138.2532,101.5269 140.1302,99.6509 142.4362,99.6509 C144.7422,99.6509 146.6182,101.5269 146.6182,103.8339 C146.6182,106.1399 144.7422,108.0159 142.4362,108.0159" id="Fill-109" fill="#444445" mask="url(#mask-2)"></path>
                <path d="M144.5769,103.8336 C144.5769,105.0166 143.6179,105.9746 142.4359,105.9746 C141.2529,105.9746 140.2949,105.0166 140.2949,103.8336 C140.2949,102.6506 141.2529,101.6926 142.4359,101.6926 C143.6179,101.6926 144.5769,102.6506 144.5769,103.8336" id="Fill-110" fill="#FFF300" mask="url(#mask-2)"></path>
                <path d="M142.4362,102.1504 C141.5082,102.1504 140.7532,102.9054 140.7532,103.8334 C140.7532,104.7614 141.5082,105.5174 142.4362,105.5174 C143.3642,105.5174 144.1192,104.7614 144.1192,103.8334 C144.1192,102.9054 143.3642,102.1504 142.4362,102.1504 M142.4362,106.4324 C141.0032,106.4324 139.8372,105.2664 139.8372,103.8334 C139.8372,102.4004 141.0032,101.2344 142.4362,101.2344 C143.8692,101.2344 145.0352,102.4004 145.0352,103.8334 C145.0352,105.2664 143.8692,106.4324 142.4362,106.4324" id="Fill-111" fill="#444445" mask="url(#mask-2)"></path>
                <path d="M142.4358,131.4826 L142.4358,131.4826 C141.2758,131.4826 140.3348,130.5426 140.3348,129.3816 L140.3348,123.0566 C140.3348,121.8966 141.2758,120.9566 142.4358,120.9566 C143.5958,120.9566 144.5368,121.8966 144.5368,123.0566 L144.5368,129.3816 C144.5368,130.5426 143.5958,131.4826 142.4358,131.4826" id="Fill-112" fill="#6D6D6D" mask="url(#mask-2)"></path>
                <path d="M142.4362,121.6892 C141.6812,121.6892 141.0672,122.3032 141.0672,123.0572 L141.0672,129.3822 C141.0672,130.1362 141.6812,130.7502 142.4362,130.7502 C143.1902,130.7502 143.8042,130.1362 143.8042,129.3822 L143.8042,123.0572 C143.8042,122.3032 143.1902,121.6892 142.4362,121.6892 M142.4362,132.2152 C140.8732,132.2152 139.6022,130.9442 139.6022,129.3822 L139.6022,123.0572 C139.6022,121.4942 140.8732,120.2232 142.4362,120.2232 C143.9982,120.2232 145.2692,121.4942 145.2692,123.0572 L145.2692,129.3822 C145.2692,130.9442 143.9982,132.2152 142.4362,132.2152" id="Fill-113" fill="#424243" mask="url(#mask-2)"></path>
                <polygon id="Fill-114" fill="#FFFFFF" mask="url(#mask-2)" points="147.6292 117.2292 137.2362 117.2292 137.2832 116.1502 147.5822 116.1502"></polygon>
            </g>
        </g>
    </g>
</svg>