<?xml version="1.0" encoding="UTF-8" standalone="no"?>
<svg width="152px" height="123px" viewBox="0 0 152 123" version="1.1" xmlns="http://www.w3.org/2000/svg" xmlns:xlink="http://www.w3.org/1999/xlink">
    <!-- Generator: Sketch 41.1 (35376) - http://www.bohemiancoding.com/sketch -->
    <title>Page 1</title>
    <desc>Created with Sketch.</desc>
    <defs>
        <polygon id="path-1" points="0 123 151.513 123 151.513 0.226 0 0.226"></polygon>
    </defs>
    <g id="Page-1" stroke="none" stroke-width="1" fill="none" fill-rule="evenodd">
        <g id="ELEGIR-TIPO-DE-NEGOCIO" transform="translate(-35.000000, -395.000000)">
            <g id="Page-1" transform="translate(35.000000, 394.000000)">
                <polygon id="Fill-1" fill="#94C2CB" points="17.123 114.106 140.14 114.106 140.14 38.683 17.123 38.683"></polygon>
                <polygon id="Fill-2" fill="#F0F2F2" points="17.123 97.782 140.14 97.782 140.14 38.684 17.123 38.684"></polygon>
                <g id="Group-82" transform="translate(0.000000, 0.774000)">
                    <path d="M140.1395,111.817 L127.8835,111.817 L98.4605,111.817 L63.0285,111.817 L32.2655,111.817 L22.1305,111.817 C20.6105,111.817 18.8485,111.568 17.3425,111.817 C17.2735,111.829 17.1935,111.817 17.1225,111.817 C17.6275,112.322 18.1325,112.827 18.6375,113.332 L18.6375,87.824 L18.6375,47.196 L18.6375,37.909 C18.1325,38.414 17.6275,38.919 17.1225,39.424 L29.3785,39.424 L58.8025,39.424 L94.2335,39.424 L124.9965,39.424 L135.1315,39.424 C136.6525,39.424 138.4135,39.673 139.9195,39.424 C139.9885,39.413 140.0685,39.424 140.1395,39.424 C139.6345,38.919 139.1295,38.414 138.6245,37.909 L138.6245,63.417 L138.6245,104.045 L138.6245,113.332 C138.6245,115.282 141.6545,115.285 141.6545,113.332 L141.6545,87.824 L141.6545,47.196 L141.6545,37.909 C141.6545,37.09 140.9605,36.394 140.1395,36.394 L127.8835,36.394 L98.4605,36.394 L63.0285,36.394 L32.2655,36.394 C27.3075,36.394 22.2975,36.182 17.3425,36.394 C17.2695,36.398 17.1955,36.394 17.1225,36.394 C16.3035,36.394 15.6075,37.088 15.6075,37.909 L15.6075,63.417 L15.6075,104.045 L15.6075,113.332 C15.6075,114.151 16.3015,114.847 17.1225,114.847 L29.3785,114.847 L58.8025,114.847 L94.2335,114.847 L124.9965,114.847 C129.9545,114.847 134.9655,115.06 139.9195,114.847 C139.9925,114.844 140.0665,114.847 140.1395,114.847 C142.0895,114.847 142.0925,111.817 140.1395,111.817 Z" id="Fill-3" fill="#404041"></path>
                    <mask id="mask-2" fill="white">
                        <use xlink:href="#path-1"></use>
                    </mask>
                    <g id="Clip-6"></g>
                    <polygon id="Fill-5" fill="#305E7F" mask="url(#mask-2)" points="107.164 113.332 131.506 113.332 131.506 52.791 107.164 52.791"></polygon>
                    <path d="M131.5059,111.817 L107.1639,111.817 C107.6689,112.322 108.1739,112.827 108.6789,113.332 L108.6789,92.89 L108.6789,60.292 L108.6789,52.791 L107.1639,54.306 L131.5059,54.306 C131.0009,53.801 130.4959,53.296 129.9909,52.791 L129.9909,73.234 L129.9909,105.831 L129.9909,113.332 C129.9909,115.282 133.0209,115.285 133.0209,113.332 L133.0209,92.89 L133.0209,60.292 L133.0209,52.791 C133.0209,51.972 132.3269,51.276 131.5059,51.276 L107.1639,51.276 C106.3449,51.276 105.6489,51.97 105.6489,52.791 L105.6489,73.234 L105.6489,105.831 L105.6489,113.332 C105.6489,114.151 106.3429,114.847 107.1639,114.847 L131.5059,114.847 C133.4559,114.847 133.4589,111.817 131.5059,111.817" id="Fill-7" fill="#404041" mask="url(#mask-2)"></path>
                    <polygon id="Fill-8" fill="#85D5F7" mask="url(#mask-2)" points="21.585 99.887 100.78 99.887 100.78 55.181 21.585 55.181"></polygon>
                    <polygon id="Fill-9" fill="#1A3A4C" mask="url(#mask-2)" points="110.575 109.541 128.452 109.541 128.452 92.213 110.575 92.213"></polygon>
                    <polygon id="Fill-10" fill="#84D3E5" mask="url(#mask-2)" points="110.575 59.508 128.452 59.508 128.452 56.074 110.575 56.074"></polygon>
                    <path d="M111.332,58.75 L127.694,58.75 L127.694,56.831 L111.332,56.831 L111.332,58.75 Z M129.209,56.074 C129.209,55.664 128.862,55.316 128.452,55.316 L110.575,55.316 C110.165,55.316 109.817,55.663 109.817,56.074 L109.817,59.508 C109.817,59.917 110.164,60.265 110.575,60.265 L128.452,60.265 C128.659,60.265 128.813,60.187 128.933,60.079 C128.95,60.066 128.968,60.055 128.985,60.04 C128.998,60.025 129.008,60.009 129.02,59.993 C129.13,59.873 129.209,59.718 129.209,59.508 L129.209,56.074 Z" id="Fill-11" fill="#404041" mask="url(#mask-2)"></path>
                    <polygon id="Fill-12" fill="#1A3A4C" mask="url(#mask-2)" points="110.575 80.338 128.452 80.338 128.452 61.628 110.575 61.628"></polygon>
                    <path d="M124.26,86.3697 L124.26,85.9737 C124.26,85.6867 124.495,85.4517 124.782,85.4517 L129.824,85.4517 C130.111,85.4517 130.345,85.6867 130.345,85.9737 L130.345,86.3697 C130.345,86.6567 130.111,86.8907 129.824,86.8907 L124.781,86.8907 C124.495,86.8907 124.26,86.6567 124.26,86.3697" id="Fill-13" fill="#F0F2F2" mask="url(#mask-2)"></path>
                    <path d="M130.0424,86.1716 C130.0424,85.9416 129.8554,85.7546 129.6254,85.7546 L124.9794,85.7546 C124.7504,85.7546 124.5634,85.9416 124.5634,86.1716 C124.5634,86.4016 124.7504,86.5886 124.9794,86.5886 L129.6254,86.5886 C129.8554,86.5886 130.0424,86.4016 130.0424,86.1716 M123.9574,86.1716 C123.9574,85.6076 124.4154,85.1486 124.9794,85.1486 L129.6254,85.1486 C130.1894,85.1486 130.6484,85.6076 130.6484,86.1716 C130.6484,86.7356 130.1894,87.1946 129.6254,87.1946 L124.9794,87.1946 C124.4154,87.1946 123.9574,86.7356 123.9574,86.1716" id="Fill-14" fill="#404041" mask="url(#mask-2)"></path>
                    <polygon id="Fill-15" fill="#00417A" mask="url(#mask-2)" points="9.752 37.913 146.907 37.913 146.907 31.69 9.752 31.69"></polygon>
                    <path d="M146.9067,30.1748 L133.2767,30.1748 L100.5397,30.1748 L60.9267,30.1748 L26.6667,30.1748 C21.1247,30.1748 15.5297,29.9478 9.9907,30.1748 C9.9117,30.1778 9.8317,30.1748 9.7517,30.1748 C8.9327,30.1748 8.2367,30.8688 8.2367,31.6898 L8.2367,37.9128 C8.2367,38.7318 8.9307,39.4278 9.7517,39.4278 L23.3817,39.4278 L56.1187,39.4278 L95.7317,39.4278 L129.9917,39.4278 C135.5337,39.4278 141.1287,39.6548 146.6677,39.4278 C146.7467,39.4248 146.8267,39.4278 146.9067,39.4278 C147.7257,39.4278 148.4217,38.7338 148.4217,37.9128 L148.4217,31.6898 C148.4217,29.7398 145.3917,29.7368 145.3917,31.6898 L145.3917,37.9128 C145.8967,37.4078 146.4017,36.9028 146.9067,36.3978 L133.2767,36.3978 L100.5397,36.3978 L60.9267,36.3978 L26.6667,36.3978 L15.3347,36.3978 C13.6297,36.3978 11.6807,36.1318 9.9907,36.3978 C9.9157,36.4098 9.8287,36.3978 9.7517,36.3978 C10.2567,36.9028 10.7617,37.4078 11.2667,37.9128 L11.2667,31.6898 C10.7617,32.1948 10.2567,32.6998 9.7517,33.2048 L23.3817,33.2048 L56.1187,33.2048 L95.7317,33.2048 L129.9917,33.2048 C135.5337,33.2048 141.1287,33.4318 146.6677,33.2048 C146.7467,33.2018 146.8267,33.2048 146.9067,33.2048 C148.8567,33.2048 148.8597,30.1748 146.9067,30.1748" id="Fill-16" fill="#404041" mask="url(#mask-2)"></path>
                    <polygon id="Fill-17" fill="#F0F2F2" mask="url(#mask-2)" points="23.599 31.119 133.664 31.119 133.664 6.169 23.599 6.169"></polygon>
                    <path d="M133.6638,4.6542 L122.6838,4.6542 L96.4578,4.6542 L64.6028,4.6542 L37.1758,4.6542 C32.7278,4.6542 28.2298,4.4372 23.7848,4.6542 C23.7228,4.6572 23.6598,4.6542 23.5988,4.6542 C22.8618,4.6542 22.2358,5.3482 22.2358,6.1692 L22.2358,31.1192 C22.2358,31.9382 22.8608,32.6342 23.5988,32.6342 L34.5788,32.6342 L60.8048,32.6342 L92.6588,32.6342 L120.0858,32.6342 C124.5338,32.6342 129.0328,32.8522 133.4778,32.6342 C133.5398,32.6312 133.6018,32.6342 133.6638,32.6342 C134.3998,32.6342 135.0258,31.9402 135.0258,31.1192 L135.0258,6.1692 C135.0258,4.2192 132.3018,4.2162 132.3018,6.1692 L132.3018,31.1192 C132.7558,30.6142 133.2098,30.1092 133.6638,29.6042 L122.6838,29.6042 L96.4578,29.6042 L64.6028,29.6042 L37.1758,29.6042 L28.1208,29.6042 C26.7448,29.6042 25.1468,29.3522 23.7848,29.6042 C23.7258,29.6152 23.6588,29.6042 23.5988,29.6042 C24.0528,30.1092 24.5068,30.6142 24.9608,31.1192 L24.9608,6.1692 C24.5068,6.6742 24.0528,7.1792 23.5988,7.6842 L34.5788,7.6842 L60.8048,7.6842 L92.6588,7.6842 L120.0858,7.6842 C124.5338,7.6842 129.0328,7.9012 133.4778,7.6842 C133.5398,7.6812 133.6018,7.6842 133.6638,7.6842 C135.4168,7.6842 135.4198,4.6542 133.6638,4.6542" id="Fill-18" fill="#404041" mask="url(#mask-2)"></path>
                    <polygon id="Fill-19" fill="#00417A" mask="url(#mask-2)" points="16.97 8.064 140.292 8.064 140.292 1.841 16.97 1.841"></polygon>
                    <path d="M140.2924,0.3262 L128.0364,0.3262 L98.6014,0.3262 L62.9834,0.3262 L32.1794,0.3262 C27.1964,0.3262 22.1654,0.0992 17.1854,0.3262 C17.1134,0.3292 17.0414,0.3262 16.9704,0.3262 C16.2334,0.3262 15.6074,1.0202 15.6074,1.8412 L15.6074,8.0642 C15.6074,8.8832 16.2314,9.5792 16.9704,9.5792 L29.2254,9.5792 L58.6604,9.5792 L94.2784,9.5792 L125.0834,9.5792 C130.0664,9.5792 135.0974,9.8062 140.0774,9.5792 C140.1484,9.5762 140.2204,9.5792 140.2924,9.5792 C141.0284,9.5792 141.6544,8.8852 141.6544,8.0642 L141.6544,1.8412 C141.6544,-0.1088 138.9304,-0.1118 138.9304,1.8412 L138.9304,8.0642 C139.3844,7.5592 139.8384,7.0542 140.2924,6.5492 L128.0364,6.5492 L98.6014,6.5492 L62.9834,6.5492 L32.1794,6.5492 L21.9894,6.5492 C20.4564,6.5492 18.7044,6.2832 17.1854,6.5492 C17.1174,6.5612 17.0394,6.5492 16.9704,6.5492 C17.4244,7.0542 17.8784,7.5592 18.3324,8.0642 L18.3324,1.8412 C17.8784,2.3462 17.4244,2.8512 16.9704,3.3562 L29.2254,3.3562 L58.6604,3.3562 L94.2784,3.3562 L125.0834,3.3562 C130.0664,3.3562 135.0974,3.5832 140.0774,3.3562 C140.1484,3.3532 140.2204,3.3562 140.2924,3.3562 C142.0454,3.3562 142.0484,0.3262 140.2924,0.3262" id="Fill-20" fill="#404041" mask="url(#mask-2)"></path>
                    <polygon id="Fill-21" fill="#F0F2F2" mask="url(#mask-2)" points="7.695 121.537 149.381 121.537 149.381 113.332 7.695 113.332"></polygon>
                    <path d="M9.2097,121.5366 L9.2097,113.3316 C8.7047,113.8366 8.1997,114.3416 7.6947,114.8466 L21.7777,114.8466 L55.5997,114.8466 L96.5257,114.8466 L131.9167,114.8466 L143.5877,114.8466 C145.3627,114.8466 147.3747,115.1136 149.1357,114.8466 C149.2137,114.8356 149.3017,114.8466 149.3807,114.8466 C148.8757,114.3416 148.3707,113.8366 147.8657,113.3316 L147.8657,121.5366 C147.8657,123.4866 150.8957,123.4896 150.8957,121.5366 L150.8957,113.3316 C150.8957,112.5126 150.2017,111.8166 149.3807,111.8166 L135.2987,111.8166 L101.4757,111.8166 L60.5497,111.8166 L25.1587,111.8166 C19.4357,111.8166 13.6597,111.5886 7.9397,111.8166 C7.8587,111.8206 7.7767,111.8166 7.6947,111.8166 C6.8757,111.8166 6.1797,112.5116 6.1797,113.3316 L6.1797,121.5366 C6.1797,123.4866 9.2097,123.4896 9.2097,121.5366" id="Fill-22" fill="#404041" mask="url(#mask-2)"></path>
                    <polygon id="Fill-23" fill="#F0F2F2" mask="url(#mask-2)" points="21.654 92.436 44.311 92.436 44.311 87.205 21.654 87.205"></polygon>
                    <polygon id="Fill-24" fill="#404041" mask="url(#mask-2)" points="21.584 88.209 46.163 88.209 46.163 86.688 21.584 86.688"></polygon>
                    <path d="M33.9257,79.5578 C40.2147,75.0328 46.5047,70.5078 52.7947,65.9828 C53.6327,65.3798 52.8247,63.9748 51.9767,64.5848 C45.6877,69.1098 39.3977,73.6348 33.1087,78.1598 C32.2697,78.7628 33.0777,80.1678 33.9257,79.5578" id="Fill-25" fill="#F0F2F2" mask="url(#mask-2)"></path>
                    <path d="M74.5211,79.5714 C80.8111,75.0464 87.1001,70.5214 93.3901,65.9964 C94.2281,65.3934 93.4211,63.9884 92.5721,64.5984 C86.2831,69.1234 79.9931,73.6484 73.7041,78.1734 C72.8651,78.7764 73.6731,80.1814 74.5211,79.5714" id="Fill-26" fill="#F0F2F2" mask="url(#mask-2)"></path>
                    <path d="M81.9247,83.1434 C86.1647,80.0934 90.4047,77.0424 94.6437,73.9924 C95.4827,73.3894 94.6747,71.9844 93.8267,72.5944 C89.5867,75.6444 85.3467,78.6954 81.1077,81.7454 C80.2687,82.3484 81.0767,83.7534 81.9247,83.1434" id="Fill-27" fill="#F0F2F2" mask="url(#mask-2)"></path>
                    <path d="M23.106,99.059 L100.568,99.059 L100.568,56.019 L23.106,56.019 L23.106,99.059 Z M101.357,100.637 L22.317,100.637 C21.881,100.637 21.528,100.284 21.528,99.848 L21.528,55.23 C21.528,54.794 21.881,54.441 22.317,54.441 L101.357,54.441 C101.793,54.441 102.146,54.794 102.146,55.23 L102.146,99.848 C102.146,100.284 101.793,100.637 101.357,100.637 L101.357,100.637 Z" id="Fill-28" fill="#404041" mask="url(#mask-2)"></path>
                    <path d="M45.6544,24.6173 C46.1084,24.2643 46.3354,23.7073 46.3354,22.9443 C46.3354,22.1693 46.1084,21.5973 45.6544,21.2303 C45.2004,20.8633 44.4854,20.6803 43.5084,20.6803 L39.6754,20.6803 L39.6754,25.1473 L43.5084,25.1473 C44.4854,25.1473 45.2004,24.9703 45.6544,24.6173 L45.6544,24.6173 Z M39.6754,18.5413 L43.1514,18.5413 C45.0224,18.5413 45.9584,17.8363 45.9584,16.4243 C45.9584,15.7193 45.7274,15.1903 45.2674,14.8363 C44.8064,14.4843 44.1014,14.3073 43.1514,14.3073 L39.6754,14.3073 L39.6754,18.5413 Z M48.2094,20.8063 C48.6774,21.4413 48.9114,22.2253 48.9114,23.1573 C48.9114,24.4413 48.4614,25.4463 47.5604,26.1733 C46.6594,26.9003 45.4064,27.2633 43.8014,27.2633 L37.0364,27.2633 L37.0364,12.1903 L43.5914,12.1903 C45.1274,12.1903 46.3354,12.5403 47.2154,13.2383 C48.0944,13.9373 48.5344,14.9003 48.5344,16.1283 C48.5344,16.9183 48.3284,17.6073 47.9164,18.1923 C47.5044,18.7783 46.9354,19.2053 46.2094,19.4733 C47.0754,19.7273 47.7414,20.1713 48.2094,20.8063 L48.2094,20.8063 Z" id="Fill-29" fill="#404041" mask="url(#mask-2)"></path>
                    <path d="M69.8111,18.88 C70.8301,18.88 71.5841,18.69 72.0731,18.308 C72.5611,17.928 72.8061,17.349 72.8061,16.573 C72.8061,15.81 72.5651,15.243 72.0831,14.869 C71.6021,14.494 70.8441,14.308 69.8111,14.308 L66.4391,14.308 L66.4391,18.88 L69.8111,18.88 Z M76.0731,27.264 L73.2251,27.264 L71.3191,22.246 C71.1511,21.78 70.8931,21.456 70.5441,21.272 C70.1951,21.089 69.7411,20.997 69.1831,20.997 L66.4811,20.997 L66.4811,27.264 L63.8001,27.264 L63.8001,12.19 L70.1881,12.19 C71.8771,12.19 73.1621,12.564 74.0411,13.313 C74.9211,14.061 75.3611,15.133 75.3611,16.53 C75.3611,17.533 75.0991,18.382 74.5761,19.081 C74.0521,19.78 73.3081,20.277 72.3451,20.574 C73.2251,20.757 73.8601,21.378 74.2511,22.437 L76.0731,27.264 Z" id="Fill-30" fill="#404041" mask="url(#mask-2)"></path>
                    <path d="M87.12,24.6173 C87.574,24.2643 87.801,23.7073 87.801,22.9443 C87.801,22.1693 87.574,21.5973 87.12,21.2303 C86.667,20.8633 85.951,20.6803 84.974,20.6803 L81.141,20.6803 L81.141,25.1473 L84.974,25.1473 C85.951,25.1473 86.667,24.9703 87.12,24.6173 L87.12,24.6173 Z M81.141,18.5413 L84.618,18.5413 C86.488,18.5413 87.424,17.8363 87.424,16.4243 C87.424,15.7193 87.194,15.1903 86.733,14.8363 C86.272,14.4843 85.567,14.3073 84.618,14.3073 L81.141,14.3073 L81.141,18.5413 Z M89.676,20.8063 C90.143,21.4413 90.377,22.2253 90.377,23.1573 C90.377,24.4413 89.927,25.4463 89.026,26.1733 C88.126,26.9003 86.873,27.2633 85.267,27.2633 L78.502,27.2633 L78.502,12.1903 L85.057,12.1903 C86.593,12.1903 87.801,12.5403 88.681,13.2383 C89.56,13.9373 90,14.9003 90,16.1283 C90,16.9183 89.794,17.6073 89.382,18.1923 C88.971,18.7783 88.401,19.2053 87.675,19.4733 C88.541,19.7273 89.207,20.1713 89.676,20.8063 L89.676,20.8063 Z" id="Fill-31" fill="#404041" mask="url(#mask-2)"></path>
                    <polygon id="Fill-32" fill="#404041" mask="url(#mask-2)" points="92.9527 27.2635 92.9527 12.1905 102.9217 12.1905 102.9217 14.3495 95.5917 14.3495 95.5917 18.5205 102.4817 18.5205 102.4817 20.6795 95.5917 20.6795 95.5917 25.1045 102.9217 25.1045 102.9217 27.2635"></polygon>
                    <path d="M111.4243,18.88 C112.4433,18.88 113.1973,18.69 113.6863,18.308 C114.1743,17.928 114.4193,17.349 114.4193,16.573 C114.4193,15.81 114.1783,15.243 113.6963,14.869 C113.2153,14.494 112.4573,14.308 111.4243,14.308 L108.0523,14.308 L108.0523,18.88 L111.4243,18.88 Z M117.6863,27.264 L114.8383,27.264 L112.9323,22.246 C112.7643,21.78 112.5063,21.456 112.1573,21.272 C111.8083,21.089 111.3543,20.997 110.7963,20.997 L108.0943,20.997 L108.0943,27.264 L105.4133,27.264 L105.4133,12.19 L111.8013,12.19 C113.4903,12.19 114.7753,12.564 115.6543,13.313 C116.5343,14.061 116.9743,15.133 116.9743,16.53 C116.9743,17.533 116.7123,18.382 116.1883,19.081 C115.6653,19.78 114.9213,20.277 113.9583,20.574 C114.8383,20.757 115.4733,21.378 115.8643,22.437 L117.6863,27.264 Z" id="Fill-33" fill="#404041" mask="url(#mask-2)"></path>
                    <path d="M145.1997,91.6506 C145.1997,101.7346 143.2847,109.9096 140.9217,109.9096 C138.5597,109.9096 136.6437,101.7346 136.6437,91.6506 C136.6437,79.9256 140.9217,73.3916 140.9217,73.3916 C140.9217,73.3916 145.1997,79.7906 145.1997,91.6506" id="Fill-34" fill="#4E8341" mask="url(#mask-2)"></path>
                    <path d="M140.9252,74.2999 C139.8792,76.2529 137.1072,82.3129 137.1072,91.6509 C137.1072,102.6969 139.3292,109.4809 140.9222,109.4809 C142.5152,109.4809 144.7372,102.6969 144.7372,91.6509 C144.7372,82.2209 141.9742,76.2329 140.9252,74.2999 M140.9222,110.3379 C137.8422,110.3379 136.1812,100.7099 136.1812,91.6509 C136.1812,79.9399 140.3482,73.4409 140.5262,73.1699 L140.9182,72.5709 L141.3162,73.1659 C141.4932,73.4319 145.6632,79.8049 145.6632,91.6509 C145.6632,100.7099 144.0012,110.3379 140.9222,110.3379" id="Fill-35" fill="#404041" mask="url(#mask-2)"></path>
                    <path d="M140.9219,107.3555 C140.6659,107.3555 140.4589,107.1635 140.4589,106.9265 L140.4589,82.0505 C140.4589,81.8135 140.6659,81.6215 140.9219,81.6215 C141.1779,81.6215 141.3849,81.8135 141.3849,82.0505 L141.3849,106.9265 C141.3849,107.1635 141.1779,107.3555 140.9219,107.3555" id="Fill-36" fill="#404041" mask="url(#mask-2)"></path>
                    <path d="M149.2793,92.8135 C149.2793,99.2155 147.8183,104.4055 146.0163,104.4055 C144.2143,104.4055 142.7533,99.2155 142.7533,92.8135 C142.7533,85.3695 146.0163,81.2215 146.0163,81.2215 C146.0163,81.2215 149.2793,85.2845 149.2793,92.8135" id="Fill-37" fill="#B2D686" mask="url(#mask-2)"></path>
                    <path d="M146.0185,81.798 C145.2205,83.038 143.1065,86.885 143.1065,92.814 C143.1065,99.827 144.8005,104.133 146.0165,104.133 C147.2315,104.133 148.9265,99.827 148.9265,92.814 C148.9265,86.827 146.8185,83.025 146.0185,81.798 M146.0165,104.678 C143.6665,104.678 142.3995,98.565 142.3995,92.814 C142.3995,85.379 145.5785,81.252 145.7135,81.08 L146.0125,80.7 L146.3165,81.078 C146.4515,81.247 149.6325,85.293 149.6325,92.814 C149.6325,98.565 148.3655,104.678 146.0165,104.678" id="Fill-38" fill="#404041" mask="url(#mask-2)"></path>
                    <path d="M146.0161,102.7841 C145.8211,102.7841 145.6631,102.6621 145.6631,102.5121 L145.6631,86.7191 C145.6631,86.5681 145.8211,86.4461 146.0161,86.4461 C146.2111,86.4461 146.3691,86.5681 146.3691,86.7191 L146.3691,102.5121 C146.3691,102.6621 146.2111,102.7841 146.0161,102.7841" id="Fill-39" fill="#404041" mask="url(#mask-2)"></path>
                    <polygon id="Fill-40" fill="#F0F2F2" mask="url(#mask-2)" points="148.0285 112.6778 137.1995 112.6778 135.5915 98.8498 149.2075 98.8498"></polygon>
                    <path d="M137.4366,112.4121 L147.7846,112.4121 L148.9186,99.1151 L135.8896,99.1151 L137.4366,112.4121 Z M148.2726,112.9431 L136.9626,112.9431 L136.9366,112.7081 L135.2936,98.5841 L149.4976,98.5841 L148.2726,112.9431 Z" id="Fill-41" fill="#404041" mask="url(#mask-2)"></path>
                    <path d="M137.5816,112.2491 L147.6346,112.2491 L148.7406,99.2791 L136.0726,99.2791 L137.5816,112.2491 Z M148.0286,113.1071 L137.1996,113.1071 C136.9816,113.1071 136.7986,112.9441 136.7736,112.7271 L135.1656,98.8991 C135.1516,98.7781 135.1896,98.6561 135.2706,98.5651 C135.3526,98.4731 135.4696,98.4211 135.5916,98.4211 L149.2076,98.4211 C149.3286,98.4211 149.4426,98.4711 149.5236,98.5601 C149.6046,98.6481 149.6456,98.7661 149.6346,98.8861 L148.4556,112.7141 C148.4366,112.9361 148.2516,113.1071 148.0286,113.1071 L148.0286,113.1071 Z" id="Fill-42" fill="#404041" mask="url(#mask-2)"></path>
                    <polygon id="Fill-43" fill="#F0F2F2" mask="url(#mask-2)" points="133.715 99.037 151.084 99.037 151.084 97.028 133.715 97.028"></polygon>
                    <path d="M133.981,98.772 L150.819,98.772 L150.819,97.294 L133.981,97.294 L133.981,98.772 Z M133.449,99.303 L151.349,99.303 L151.349,96.763 L133.449,96.763 L133.449,99.303 Z" id="Fill-44" fill="#404041" mask="url(#mask-2)"></path>
                    <path d="M134.144,98.609 L150.655,98.609 L150.655,97.457 L134.144,97.457 L134.144,98.609 Z M151.084,99.466 L133.715,99.466 C133.478,99.466 133.286,99.275 133.286,99.038 L133.286,97.028 C133.286,96.791 133.478,96.599 133.715,96.599 L151.084,96.599 C151.321,96.599 151.513,96.791 151.513,97.028 L151.513,99.038 C151.513,99.275 151.321,99.466 151.084,99.466 L151.084,99.466 Z" id="Fill-45" fill="#404041" mask="url(#mask-2)"></path>
                    <polygon id="Fill-46" fill="#404041" mask="url(#mask-2)" points="11.204 57.996 16.474 57.996 16.474 56.65 11.204 56.65"></polygon>
                    <polygon id="Fill-47" fill="#404041" mask="url(#mask-2)" points="11.204 82.082 16.474 82.082 16.474 80.736 11.204 80.736"></polygon>
                    <polygon id="Fill-48" fill="#F0F2F2" mask="url(#mask-2)" points="1.215 84.352 13.338 84.352 13.338 55.22 1.215 55.22"></polygon>
                    <path d="M1.552,84.016 L13.002,84.016 L13.002,55.557 L1.552,55.557 L1.552,84.016 Z M0.879,84.689 L13.675,84.689 L13.675,54.884 L0.879,54.884 L0.879,84.689 Z" id="Fill-49" fill="#404041" mask="url(#mask-2)"></path>
                    <path d="M13.6877,53.2878 L0.8657,53.2878 C0.3877,53.2878 -0.0003,53.6758 -0.0003,54.1538 L-0.0003,54.6058 C-0.0003,55.0848 0.3877,55.4718 0.8657,55.4718 L13.6877,55.4718 C14.1657,55.4718 14.5537,55.0848 14.5537,54.6058 L14.5537,54.1538 C14.5537,53.6758 14.1657,53.2878 13.6877,53.2878" id="Fill-50" fill="#404041" mask="url(#mask-2)"></path>
                    <path d="M13.7423,82.8947 L0.8113,82.8947 C0.3633,82.8947 0.0003,83.2577 0.0003,83.7057 L0.0003,84.2677 C0.0003,84.7157 0.3633,85.0787 0.8113,85.0787 L13.7423,85.0787 C14.1903,85.0787 14.5533,84.7157 14.5533,84.2677 L14.5533,83.7057 C14.5533,83.2577 14.1903,82.8947 13.7423,82.8947" id="Fill-51" fill="#404041" mask="url(#mask-2)"></path>
                    <polygon id="Fill-52" fill="#EF524E" mask="url(#mask-2)" points="13.3383 65.1827 1.2153 60.4687 1.2153 56.4847 13.3383 61.1987"></polygon>
                    <path d="M1.5521,60.2387 L13.0021,64.6907 L13.0021,61.4287 L1.5521,56.9757 L1.5521,60.2387 Z M13.6751,65.6737 L0.8791,60.6987 L0.8791,55.9927 L13.6751,60.9687 L13.6751,65.6737 Z" id="Fill-53" fill="#404041" mask="url(#mask-2)"></path>
                    <polygon id="Fill-54" fill="#EF524E" mask="url(#mask-2)" points="13.3383 73.469 1.2153 68.755 1.2153 64.771 13.3383 69.485"></polygon>
                    <path d="M1.5521,68.525 L13.0021,72.977 L13.0021,69.715 L1.5521,65.263 L1.5521,68.525 Z M13.6751,73.96 L0.8791,68.985 L0.8791,64.279 L13.6751,69.255 L13.6751,73.96 Z" id="Fill-55" fill="#404041" mask="url(#mask-2)"></path>
                    <polygon id="Fill-56" fill="#EF524E" mask="url(#mask-2)" points="13.3383 81.7554 1.2153 77.0414 1.2153 73.0574 13.3383 77.7714"></polygon>
                    <path d="M1.5521,76.8113 L13.0021,81.2633 L13.0021,78.0013 L1.5521,73.5493 L1.5521,76.8113 Z M13.6751,82.2463 L0.8791,77.2713 L0.8791,72.5653 L13.6751,77.5413 L13.6751,82.2463 Z" id="Fill-57" fill="#404041" mask="url(#mask-2)"></path>
                    <g id="Group-80" mask="url(#mask-2)" fill="#404041">
                        <g transform="translate(48.000000, 62.000000)">
                            <path d="M32.7999,18.4212 C31.7219,26.9832 23.8759,33.0812 15.3169,31.9952 C6.7539,30.9182 0.6649,23.0752 1.7419,14.5122 C2.7369,6.6102 9.4929,0.8142 17.2599,0.8142 C17.9089,0.8142 18.5649,0.8542 19.2249,0.9382 C27.7879,2.0152 33.8779,9.8582 32.7999,18.4212 M19.3109,0.2582 C14.9789,-0.2878 10.6979,0.8872 7.2519,3.5632 C3.8049,6.2392 1.6069,10.0972 1.0619,14.4272 C-0.0621,23.3642 6.2939,31.5512 15.2309,32.6752 C15.9249,32.7632 16.6159,32.8062 17.3039,32.8062 C20.9109,32.8062 24.3959,31.6182 27.2899,29.3712 C30.7369,26.6942 32.9349,22.8362 33.4799,18.5062 C34.6049,9.5692 28.2479,1.3832 19.3109,0.2582" id="Fill-58"></path>
                            <path d="M20.8469,11.1901 C20.4409,11.1741 20.0499,11.3951 19.8979,11.7481 C19.7089,12.1871 19.6419,12.6521 19.6289,13.1691 C19.9769,13.2121 20.3089,13.2671 20.6439,13.2921 C20.8919,13.3101 21.1479,13.3051 21.3709,13.1641 C21.7619,12.9181 21.9679,12.3801 21.8479,11.9381 C21.7289,11.4961 21.3459,11.2101 20.8469,11.1901" id="Fill-59"></path>
                            <path d="M15.7692,10.9209 C15.5682,10.5599 15.0542,10.3729 14.6342,10.4569 C14.2162,10.5409 13.9222,10.8469 13.8362,11.2879 C13.7352,11.8049 14.0142,12.3299 14.5142,12.4719 C14.8582,12.5709 15.2212,12.6109 15.5782,12.6539 C15.8042,12.6809 15.8062,12.6619 15.8512,12.4319 C15.8682,12.3429 15.8832,12.2519 15.9042,12.1359 C15.9102,11.9499 15.9402,11.7359 15.9192,11.5279 C15.8982,11.3209 15.8672,11.0979 15.7692,10.9209" id="Fill-60"></path>
                            <path d="M22.3263,13.1575 C21.9753,13.7705 21.4193,14.0395 20.7283,13.9985 C20.2983,13.9725 19.8713,13.8815 19.4423,13.8265 C19.3873,13.8205 19.3053,13.8395 19.2733,13.8785 C18.8943,14.3275 18.5243,14.7855 18.1463,15.2365 C18.0813,15.3135 18.1193,15.3635 18.1523,15.4285 C18.8023,16.7415 19.4633,18.0505 20.0983,19.3715 C20.3693,19.9345 20.6323,20.5065 20.7663,21.1235 C20.8753,21.6185 20.8873,22.1095 20.6553,22.5785 C20.5123,22.8685 20.2923,23.0845 19.9783,23.2355 C19.0643,21.0835 18.1533,18.9395 17.2293,16.7635 C15.8023,18.6345 14.3893,20.4865 12.9483,22.3755 C12.8263,22.2115 12.6973,22.0745 12.6103,21.9155 C12.3533,21.4455 12.4023,20.9575 12.5693,20.4725 C12.7323,20.0015 13.0163,19.5995 13.3143,19.2075 C14.3533,17.8395 15.4763,16.5415 16.6393,15.2785 C16.7323,15.1785 16.7473,15.1055 16.6873,14.9815 C16.4483,14.4915 16.2193,13.9975 15.9933,13.5015 C15.9463,13.3985 15.8913,13.3645 15.7763,13.3655 C15.2333,13.3665 14.6993,13.3055 14.1843,13.1175 C13.3833,12.8255 13.1183,12.0585 13.1073,11.4985 C13.0893,10.6125 13.7303,9.8655 14.5923,9.7405 C15.4023,9.6225 16.6163,10.1335 16.6233,11.4435 C16.6253,11.8745 16.5573,12.3065 16.5233,12.7385 C16.5193,12.7885 16.5143,12.8515 16.5393,12.8875 C16.8663,13.3535 17.1973,13.8155 17.5403,14.2965 C17.9903,13.9175 18.4273,13.5535 18.8583,13.1825 C18.8973,13.1485 18.9133,13.0725 18.9183,13.0145 C18.9593,12.5525 19.0173,12.0955 19.1683,11.6525 C19.4103,10.9425 19.9193,10.5715 20.6453,10.4955 C21.3513,10.4225 21.9313,10.6765 22.3183,11.2805 C22.7103,11.8945 22.6823,12.5355 22.3263,13.1575 M18.4353,7.2135 C13.3253,6.5695 8.6603,10.1915 8.0173,15.3025 C7.3743,20.4125 10.9963,25.0775 16.1063,25.7205 C21.2173,26.3635 25.8813,22.7415 26.5243,17.6315 C27.1673,12.5205 23.5463,7.8565 18.4353,7.2135" id="Fill-61"></path>
                            <polygon id="Fill-62" points="9.8886 25.3477 9.1916 26.1507 8.0616 25.1707 8.7596 24.3667 8.6046 24.2327 7.0676 26.0047 7.2216 26.1387 7.9436 25.3077 9.0726 26.2877 8.3516 27.1187 8.5056 27.2527 10.0426 25.4817"></polygon>
                            <path d="M11.2035,27.9637 L10.2305,27.4287 L11.3415,26.5627 L11.2035,27.9637 Z M9.3555,27.8667 L9.5405,27.9677 L10.0785,27.5487 L11.1875,28.1567 L11.1195,28.8347 L11.3055,28.9367 L11.5415,26.3907 L11.3805,26.3017 L9.3555,27.8667 Z" id="Fill-63"></path>
                            <polygon id="Fill-64" points="12.2016 29.263 12.3936 29.333 13.2046 27.133 13.0136 27.062"></polygon>
                            <path d="M15.2875,28.3447 C15.2195,28.6587 14.9995,28.7757 14.6235,28.6947 L13.9465,28.5497 L14.1445,27.6257 L14.8205,27.7697 C15.1965,27.8507 15.3515,28.0417 15.2875,28.3447 M14.8705,27.6027 L13.9845,27.4127 L13.4935,29.7067 L13.6935,29.7487 L13.9125,28.7247 L14.5535,28.8617 C14.6755,28.8877 14.7655,28.9257 14.8225,28.9737 C14.8795,29.0237 14.9155,29.1037 14.9295,29.2157 L15.0525,30.0397 L15.2595,30.0837 L15.1365,29.2257 C15.1225,29.1307 15.0975,29.0557 15.0595,28.9997 C15.0225,28.9447 14.9715,28.9047 14.9075,28.8797 C15.0615,28.8697 15.1895,28.8237 15.2885,28.7387 C15.3885,28.6547 15.4545,28.5387 15.4865,28.3897 C15.5295,28.1887 15.4975,28.0197 15.3895,27.8837 C15.2815,27.7467 15.1085,27.6527 14.8705,27.6027" id="Fill-65"></path>
                            <path d="M18.9888,29.9086 C18.8808,29.9616 18.7578,29.9926 18.6198,30.0036 C18.3478,30.0236 18.1318,29.9496 17.9708,29.7836 C17.8098,29.6166 17.7178,29.3716 17.6928,29.0466 C17.6698,28.7246 17.7258,28.4696 17.8618,28.2836 C17.9978,28.0966 18.1998,27.9926 18.4698,27.9736 C18.6078,27.9626 18.7348,27.9756 18.8498,28.0126 C18.9648,28.0496 19.0818,28.1136 19.2008,28.2066 L19.2738,28.0396 C19.1688,27.9456 19.0458,27.8776 18.9078,27.8366 C18.7688,27.7946 18.6188,27.7806 18.4568,27.7926 C18.2398,27.8076 18.0548,27.8696 17.9018,27.9766 C17.7488,28.0836 17.6368,28.2296 17.5638,28.4156 C17.4928,28.6016 17.4648,28.8176 17.4828,29.0626 C17.5008,29.3096 17.5598,29.5216 17.6588,29.6956 C17.7568,29.8706 17.8898,29.9986 18.0578,30.0826 C18.2238,30.1666 18.4158,30.2006 18.6328,30.1836 C18.7948,30.1716 18.9408,30.1346 19.0728,30.0736 C19.2028,30.0126 19.3138,29.9276 19.4058,29.8196 L19.3078,29.6656 C19.2038,29.7746 19.0978,29.8556 18.9888,29.9086" id="Fill-66"></path>
                            <path d="M21.6182,27.1511 L21.4252,27.2061 L21.8252,28.6151 C21.8912,28.8461 21.8822,29.0361 21.8002,29.1861 C21.7182,29.3371 21.5662,29.4421 21.3452,29.5051 C20.8912,29.6341 20.5972,29.4671 20.4652,29.0011 L20.0652,27.5911 L19.8692,27.6471 L20.2632,29.0351 C20.3462,29.3301 20.4842,29.5301 20.6752,29.6391 C20.8682,29.7481 21.1072,29.7611 21.3942,29.6791 C21.6792,29.5991 21.8742,29.4621 21.9802,29.2691 C22.0852,29.0761 22.0952,28.8331 22.0122,28.5381 L21.6182,27.1511 Z" id="Fill-67"></path>
                            <polygon id="Fill-68" points="23.8627 26.271 23.7827 26.112 22.1017 26.963 22.1817 27.123 22.9317 26.744 23.9107 28.676 24.0927 28.584 23.1137 26.651"></polygon>
                            <path d="M7.0311,9.015 C7.1311,8.893 7.2261,8.821 7.3181,8.801 C7.4091,8.78 7.5041,8.81 7.6001,8.887 C7.6941,8.964 7.7401,9.049 7.7381,9.141 C7.7361,9.233 7.6851,9.341 7.5861,9.463 L7.1971,9.945 L6.6421,9.496 L7.0311,9.015 Z M5.8511,8.856 L6.2041,8.419 C6.3001,8.301 6.3941,8.229 6.4841,8.207 C6.5751,8.185 6.6641,8.208 6.7521,8.28 C6.9271,8.421 6.9201,8.61 6.7291,8.845 L6.3771,9.282 L5.8511,8.856 Z M7.8791,9.639 C8.0411,9.438 8.1241,9.244 8.1251,9.057 C8.1261,8.872 8.0471,8.715 7.8881,8.586 C7.7721,8.492 7.6511,8.443 7.5251,8.438 C7.3981,8.432 7.2761,8.471 7.1561,8.554 C7.1961,8.437 7.2011,8.322 7.1711,8.212 C7.1391,8.1 7.0751,8.007 6.9761,7.927 C6.8241,7.804 6.6601,7.762 6.4841,7.801 C6.3081,7.842 6.1421,7.959 5.9861,8.152 L5.3201,8.974 L7.1921,10.489 L7.8791,9.639 Z" id="Fill-69"></path>
                            <path d="M9.4093,6.9499 L8.7163,7.5029 L8.4203,6.4209 L9.4093,6.9499 Z M8.9763,8.4509 L8.8143,7.8579 L9.7343,7.1239 L10.2743,7.4159 L10.6143,7.1439 L8.2593,5.9419 L7.9813,6.1649 L8.6333,8.7249 L8.9763,8.4509 Z" id="Fill-70"></path>
                            <path d="M10.5151,4.8725 L11.0051,4.6335 C11.1541,4.5615 11.2771,4.5335 11.3731,4.5535 C11.4691,4.5725 11.5441,4.6375 11.5981,4.7475 C11.6521,4.8575 11.6571,4.9585 11.6131,5.0475 C11.5681,5.1375 11.4721,5.2185 11.3241,5.2895 L10.8351,5.5285 L10.5151,4.8725 Z M11.4281,6.7285 L10.9901,5.8295 L11.3821,5.6385 C11.4631,5.5985 11.5351,5.5805 11.5991,5.5815 C11.6621,5.5835 11.7221,5.6115 11.7791,5.6665 L12.4071,6.2525 L12.8201,6.0505 L12.2181,5.4865 C12.0871,5.3625 11.9521,5.3185 11.8111,5.3535 C11.9301,5.2445 12.0031,5.1185 12.0301,4.9825 C12.0571,4.8435 12.0351,4.7035 11.9661,4.5605 C11.8671,4.3595 11.7291,4.2365 11.5491,4.1915 C11.3681,4.1465 11.1561,4.1835 10.9111,4.3035 L9.9841,4.7555 L11.0391,6.9195 L11.4281,6.7285 Z" id="Fill-71"></path>
                            <path d="M13.8592,3.6127 C14.0082,3.5757 14.1252,3.5757 14.2112,3.6127 C14.2962,3.6507 14.3532,3.7237 14.3802,3.8337 C14.4342,4.0517 14.3142,4.1967 14.0212,4.2697 L13.4762,4.4037 L13.3142,3.7467 L13.8592,3.6127 Z M14.5162,4.5907 C14.6012,4.6287 14.6582,4.7087 14.6872,4.8297 C14.7162,4.9477 14.7022,5.0427 14.6452,5.1157 C14.5872,5.1867 14.4822,5.2427 14.3292,5.2807 L13.7272,5.4277 L13.5572,4.7357 L14.1582,4.5877 C14.3112,4.5497 14.4312,4.5507 14.5162,4.5907 L14.5162,4.5907 Z M14.4552,5.5967 C14.7072,5.5347 14.8902,5.4307 15.0032,5.2827 C15.1162,5.1357 15.1492,4.9627 15.1002,4.7627 C15.0642,4.6187 14.9982,4.5057 14.9002,4.4257 C14.8022,4.3447 14.6812,4.3017 14.5352,4.2957 C14.6392,4.2257 14.7122,4.1377 14.7552,4.0307 C14.7962,3.9247 14.8032,3.8107 14.7722,3.6877 C14.7262,3.4967 14.6202,3.3647 14.4552,3.2907 C14.2912,3.2147 14.0882,3.2077 13.8472,3.2677 L12.8192,3.5197 L13.3942,5.8577 L14.4552,5.5967 Z" id="Fill-72"></path>
                            <polygon id="Fill-73" points="17.4972 5.2696 17.4822 4.9256 16.3002 4.9746 16.2702 4.2686 17.3822 4.2216 17.3672 3.8776 16.2552 3.9246 16.2272 3.2586 17.4102 3.2086 17.3952 2.8636 15.7872 2.9316 15.8892 5.3376"></polygon>
                            <path d="M18.8793,3.3233 L19.4163,3.4093 C19.5813,3.4343 19.6973,3.4843 19.7653,3.5553 C19.8323,3.6253 19.8573,3.7213 19.8373,3.8413 C19.8183,3.9643 19.7653,4.0493 19.6773,4.0973 C19.5903,4.1453 19.4653,4.1553 19.3023,4.1303 L18.7653,4.0453 L18.8793,3.3233 Z M18.7183,4.3803 L19.1493,4.4493 C19.2383,4.4623 19.3083,4.4893 19.3593,4.5263 C19.4113,4.5643 19.4443,4.6213 19.4593,4.7003 L19.6383,5.5393 L20.0923,5.6113 L19.9223,4.8033 C19.8863,4.6263 19.8003,4.5123 19.6643,4.4603 C19.8253,4.4393 19.9573,4.3793 20.0573,4.2823 C20.1583,4.1853 20.2213,4.0573 20.2463,3.9003 C20.2813,3.6783 20.2373,3.4983 20.1163,3.3583 C19.9943,3.2183 19.7993,3.1273 19.5293,3.0843 L18.5113,2.9233 L18.1353,5.3013 L18.5623,5.3683 L18.7183,4.3803 Z" id="Fill-74"></path>
                            <path d="M22.5349,6.5902 C22.7099,6.6772 22.8759,6.7272 23.0309,6.7392 C23.1859,6.7512 23.3219,6.7272 23.4389,6.6652 C23.5549,6.6042 23.6459,6.5092 23.7099,6.3792 C23.7689,6.2622 23.7869,6.1502 23.7659,6.0422 C23.7439,5.9342 23.6889,5.8282 23.6009,5.7222 C23.5129,5.6152 23.3889,5.4972 23.2319,5.3652 C23.0769,5.2402 22.9749,5.1372 22.9259,5.0562 C22.8759,4.9762 22.8729,4.8942 22.9149,4.8092 C22.9639,4.7102 23.0439,4.6532 23.1529,4.6362 C23.2629,4.6182 23.3869,4.6452 23.5259,4.7152 C23.7579,4.8312 23.9319,5.0122 24.0459,5.2622 L24.3189,5.0422 C24.2719,4.9192 24.1929,4.8002 24.0789,4.6862 C23.9649,4.5732 23.8329,4.4792 23.6819,4.4022 C23.5169,4.3202 23.3569,4.2762 23.2029,4.2682 C23.0489,4.2632 22.9119,4.2912 22.7939,4.3562 C22.6759,4.4212 22.5859,4.5162 22.5229,4.6432 C22.4329,4.8202 22.4269,4.9872 22.5039,5.1412 C22.5809,5.2942 22.7389,5.4692 22.9799,5.6622 C23.1339,5.7872 23.2379,5.8912 23.2919,5.9722 C23.3469,6.0532 23.3529,6.1342 23.3129,6.2152 C23.2659,6.3092 23.1879,6.3622 23.0789,6.3742 C22.9719,6.3852 22.8429,6.3552 22.6939,6.2792 C22.5589,6.2122 22.4439,6.1312 22.3489,6.0372 C22.2539,5.9432 22.1729,5.8302 22.1079,5.6992 L21.8319,5.9172 C21.8919,6.0502 21.9819,6.1742 22.1049,6.2912 C22.2269,6.4072 22.3699,6.5062 22.5349,6.5902" id="Fill-75"></path>
                            <polygon id="Fill-76" points="24.2627 7.586 24.9197 6.774 25.8797 7.551 25.2227 8.363 25.5587 8.635 27.0737 6.764 26.7367 6.49 26.1027 7.274 25.1437 6.498 25.7777 5.714 25.4437 5.445 23.9297 7.316"></polygon>
                            <path d="M28.1041,9.8159 C27.8781,9.9899 27.6651,10.0759 27.4691,10.0709 C27.2721,10.0669 27.1051,9.9759 26.9681,9.7999 C26.8321,9.6229 26.7871,9.4389 26.8321,9.2469 C26.8781,9.0549 27.0141,8.8709 27.2411,8.6969 C27.4681,8.5219 27.6781,8.4379 27.8731,8.4429 C28.0691,8.4489 28.2341,8.5409 28.3711,8.7169 C28.5071,8.8929 28.5531,9.0769 28.5091,9.2689 C28.4641,9.4599 28.3291,9.6419 28.1041,9.8159 M28.1561,8.1119 C27.9721,8.0369 27.7781,8.0179 27.5751,8.0589 C27.3711,8.0989 27.1701,8.1959 26.9721,8.3479 C26.7721,8.5029 26.6271,8.6729 26.5371,8.8619 C26.4471,9.0489 26.4151,9.2419 26.4411,9.4399 C26.4671,9.6379 26.5511,9.8289 26.6931,10.0119 C26.8361,10.1979 27.0001,10.3269 27.1841,10.4019 C27.3681,10.4759 27.5611,10.4939 27.7651,10.4529 C27.9691,10.4119 28.1711,10.3159 28.3711,10.1609 C28.5691,10.0079 28.7141,9.8379 28.8051,9.6529 C28.8971,9.4679 28.9291,9.2759 28.9021,9.0779 C28.8751,8.8809 28.7901,8.6899 28.6471,8.5039 C28.5031,8.3189 28.3401,8.1879 28.1561,8.1119" id="Fill-77"></path>
                            <path d="M29.7947,11.0009 L30.0307,11.5069 C30.0957,11.6439 30.1167,11.7619 30.0927,11.8579 C30.0687,11.9539 30.0027,12.0269 29.8947,12.0769 C29.7877,12.1269 29.6907,12.1289 29.6017,12.0849 C29.5127,12.0409 29.4357,11.9509 29.3727,11.8139 L29.1357,11.3079 L29.7947,11.0009 Z M27.9197,11.8769 L28.8297,11.4519 L29.0877,12.0029 C29.1967,12.2359 29.3387,12.3909 29.5147,12.4699 C29.6907,12.5479 29.8767,12.5409 30.0727,12.4499 C30.2687,12.3579 30.3927,12.2199 30.4447,12.0359 C30.4977,11.8519 30.4687,11.6439 30.3587,11.4079 L29.9157,10.4619 L27.7347,11.4819 L27.9197,11.8769 Z" id="Fill-78"></path>
                            <path d="M17.4092,15.3693 C17.2082,15.3443 17.0252,15.4863 17.0002,15.6873 C16.9742,15.8873 17.1172,16.0713 17.3172,16.0963 C17.5182,16.1213 17.7012,15.9793 17.7272,15.7783 C17.7522,15.5773 17.6102,15.3943 17.4092,15.3693" id="Fill-79"></path>
                        </g>
                    </g>
                    <path d="M60.8943,14.3522 C60.6113,14.5732 60.2643,14.6152 59.9253,14.6252 C59.4683,14.6382 59.0103,14.6092 58.5323,14.5972 C58.4793,13.8952 58.5063,13.2552 58.7023,12.6342 C58.8593,12.1362 59.3593,11.7812 59.9123,11.7482 C60.5913,11.7072 61.1493,12.0422 61.3723,12.6252 C61.5953,13.2082 61.3893,13.9652 60.8943,14.3522 M55.8013,18.8842 C55.5253,18.8772 55.3073,18.6482 55.3143,18.3732 C55.3203,18.0972 55.5493,17.8792 55.8253,17.8862 C56.1013,17.8932 56.3193,18.1212 56.3123,18.3972 C56.3053,18.6732 56.0763,18.8912 55.8013,18.8842 M53.3413,13.7092 C53.3283,13.8692 53.3203,13.9942 53.3093,14.1182 C53.2813,14.4362 53.2803,14.4612 52.9693,14.4552 C52.4793,14.4462 51.9823,14.4412 51.5023,14.3562 C50.8053,14.2312 50.3543,13.5572 50.4213,12.8422 C50.4773,12.2332 50.8343,11.7782 51.3893,11.6072 C51.9473,11.4352 52.6703,11.6182 52.9913,12.0802 C53.1483,12.3062 53.2213,12.6052 53.2773,12.8822 C53.3343,13.1622 53.3243,13.4562 53.3413,13.7092 M59.5433,10.8342 C58.5703,11.0362 57.9313,11.6092 57.7003,12.6062 C57.5573,13.2272 57.5393,13.8542 57.5483,14.4862 C57.5493,14.5662 57.5383,14.6702 57.4893,14.7222 C56.9563,15.2842 56.4133,15.8382 55.8553,16.4132 C55.3253,15.8082 54.8123,15.2282 54.3053,14.6402 C54.2663,14.5952 54.2653,14.5082 54.2633,14.4402 C54.2493,13.8502 54.2823,13.2552 54.2203,12.6712 C54.0313,10.8962 52.3153,10.3702 51.2343,10.6412 C50.0813,10.9292 49.3153,12.0302 49.4613,13.2292 C49.5543,13.9862 50.0183,14.9902 51.1433,15.2762 C51.8673,15.4602 52.6003,15.4702 53.3363,15.3932 C53.4923,15.3772 53.5723,15.4142 53.6493,15.5482 C54.0233,16.1892 54.4023,16.8282 54.7933,17.4592 C54.8923,17.6192 54.8813,17.7202 54.7693,17.8682 C53.3653,19.7402 52.0213,21.6542 50.8003,23.6522 C50.4503,24.2252 50.1203,24.8082 49.9643,25.4692 C49.8043,26.1492 49.8043,26.8182 50.2183,27.4202 C50.3583,27.6242 50.5513,27.7922 50.7383,27.9972 C52.4333,25.2382 54.0953,22.5342 55.7733,19.8012 C57.3253,22.6242 58.8543,25.4062 60.3893,28.1982 C60.7943,27.9512 61.0613,27.6272 61.2153,27.2152 C61.4653,26.5472 61.3823,25.8832 61.1673,25.2272 C60.9003,24.4082 60.4653,23.6692 60.0203,22.9422 C58.9773,21.2392 57.9033,19.5552 56.8403,17.8642 C56.7883,17.7812 56.7293,17.7182 56.8073,17.6042 C57.2573,16.9422 57.6953,16.2702 58.1473,15.6082 C58.1863,15.5522 58.2953,15.5142 58.3693,15.5162 C58.9593,15.5312 59.5503,15.5962 60.1383,15.5712 C61.0793,15.5332 61.7963,15.0922 62.1883,14.2122 C62.5853,13.3202 62.5363,12.4472 61.9193,11.6692 C61.3123,10.9032 60.4913,10.6382 59.5433,10.8342" id="Fill-81" fill="#404041" mask="url(#mask-2)"></path>
                </g>
            </g>
        </g>
    </g>
</svg>