<?xml version="1.0" encoding="UTF-8" standalone="no"?>
<svg width="134px" height="41px" viewBox="0 0 134 41" version="1.1" xmlns="http://www.w3.org/2000/svg" xmlns:xlink="http://www.w3.org/1999/xlink">
    <!-- Generator: Sketch 41.1 (35376) - http://www.bohemiancoding.com/sketch -->
    <title>citymollNegocios</title>
    <desc>Created with Sketch.</desc>
    <defs>
        <polygon id="path-1" points="0.0926969688 8.72428818 7.74242835 8.72428818 7.74242835 0.128566927 0.0926969688 0.128566927 0.0926969688 8.72428818"></polygon>
    </defs>
    <g id="Page-1" stroke="none" stroke-width="1" fill="none" fill-rule="evenodd">
        <g id="DASHBOARD-TIENDA" transform="translate(-17.000000, -28.000000)">
            <g id="citymollNegocios" transform="translate(17.000000, 28.000000)">
                <path d="M87.3334358,9.29388241 C86.6934097,8.65715478 85.9418839,8.15201849 85.0806142,7.78021841 C84.2183202,7.40769131 83.306861,7.22055532 82.3452122,7.22055532 C80.208719,7.22055532 78.4067251,8.05648754 76.9368891,9.72675251 C76.2395036,8.88602194 75.4250579,8.25889102 74.4941374,7.84288788 C73.563217,7.42935662 72.5693767,7.22055532 71.5124703,7.22055532 C68.9427084,7.22055532 64.4394063,8.05576051 64.4394063,14.4153304 L64.4394063,23.2175555 C64.4394063,23.2400933 64.4418938,23.2624856 64.4435034,23.2850234 C64.4418938,23.3058162 64.4394063,23.3258821 64.4394063,23.3443485 C64.4394063,25.1028742 65.8754411,26.5298769 67.6458288,26.5298769 C69.4147533,26.5298769 70.8497638,25.1028742 70.8497638,23.3443485 L70.8497638,15.2535891 C70.8497638,15.2535891 70.8513734,15.2487907 70.8522513,15.2455918 C70.8513734,15.2141844 70.8481542,15.1821953 70.8481542,15.1491884 C70.8481542,14.3622576 71.4922774,13.7230581 72.2856523,13.7230581 C73.0784418,13.7230581 73.7216871,14.3622576 73.7216871,15.1491884 L73.7216871,15.1564587 L73.7216871,15.1708537 L73.7216871,23.3443485 C73.7216871,25.1028742 75.1600631,26.5298769 76.9288413,26.5298769 C78.6984974,26.5298769 80.1343858,25.1028742 80.1343858,23.3443485 L80.1424337,23.3443485 L80.1424337,15.1708537 C80.1424337,15.1708537 80.1424337,15.1669278 80.1440433,15.1564587 L80.1440433,15.1491884 C80.1440433,14.3622576 80.7872886,13.7230581 81.5800781,13.7230581 C82.3752089,13.7230581 83.0183078,14.3622576 83.0183078,15.1491884 C83.0183078,15.1821953 83.014357,15.2141844 83.0127474,15.2455918 C83.0127474,15.2487907 83.0159666,15.2535891 83.0159666,15.2535891 L83.0159666,23.1806227 C83.0127474,23.2360219 83.0070408,23.2898217 83.0070408,23.3443485 C83.0070408,25.1028742 84.4413197,26.5298769 86.2134633,26.5298769 C87.9831194,26.5298769 89.4182763,25.1028742 89.4182763,23.3443485 C89.4182763,23.3258821 89.4157887,23.3058162 89.4157887,23.2850234 C89.4157887,23.2624856 89.4182763,23.2400933 89.4182763,23.2175555 L89.4182763,14.2498597 C89.4182763,13.2935323 89.2299558,12.3885328 88.8558025,11.5318077 C88.4793079,10.6758097 87.9718524,9.92901059 87.3334358,9.29388241" id="Fill-1" fill="#1A188A"></path>
                <g id="Group-5" transform="translate(0.000000, 1.404610)" fill="#1A188A">
                    <path d="M18.6759005,16.7675584 C17.8362869,16.7675584 17.0759815,17.0912295 16.5038503,17.6162862 L16.5029723,17.6146868 C15.0735221,19.0335469 6.41034291,20.2492764 6.41034291,12.6443144 C6.41034291,6.21160594 13.9010189,5.11961587 16.4100559,7.6151985 L16.4109338,7.61359905 C16.9895034,8.18533073 17.7862437,8.53779197 18.6653651,8.53779197 C20.4375087,8.53779197 21.8717876,7.11180707 21.8717876,5.35168193 C21.8717876,4.46922018 21.5089013,3.67022079 20.925503,3.09369075 C20.8931651,3.0558855 20.8600957,3.01982511 20.8236607,2.98361931 C18.4027115,1.01949124 15.6901362,0.0382996251 12.6881299,0.0382996251 C10.8813072,0.0382996251 9.20939629,0.369095552 7.67415305,1.0276339 C7.59338158,1.05976837 7.51495131,1.09335688 7.43900857,1.13116212 C6.09120781,1.74302553 4.84759054,2.61181923 3.7106443,3.74088753 C1.23716433,6.20040977 -1.46325128e-05,9.16739477 -1.46325128e-05,12.6443144 C-1.46325128e-05,16.1324302 1.23716433,19.1074125 3.7106443,21.5646083 C6.18412426,24.0241305 9.17793639,25.2517833 12.6881299,25.2517833 C15.6181443,25.2517833 18.2533135,24.3348606 20.5934913,22.5015968 C21.3732579,21.9211408 21.8814451,20.998402 21.8814451,19.9545409 C21.8814451,18.1960152 20.4455566,16.7675584 18.6759005,16.7675584" id="Fill-3"></path>
                </g>
                <path d="M29.437982,12.0761015 C29.437982,10.3168488 28.0037031,8.88984608 26.233169,8.88984608 C24.4635129,8.88984608 23.0276244,10.3168488 23.0276244,12.0761015 L23.0276244,23.6703897 L23.0462077,23.6703897 C23.2166765,25.270715 24.5782318,26.5184336 26.233169,26.5184336 C27.8881062,26.5184336 29.2505395,25.270715 29.4201303,23.6703897 L29.4210082,23.6703897 L29.4210082,23.6695173 C29.4322753,23.5578464 29.437982,23.4463209 29.437982,23.3323235 C29.437982,23.2190532 29.4322753,23.1066553 29.4210082,22.9965838 L29.4210082,12.4118412 C29.4322753,12.3017698 29.437982,12.1893719 29.437982,12.0761015" id="Fill-6" fill="#1A188A"></path>
                <path d="M26.1631524,0.0447555983 C24.2012251,0.0447555983 22.6116952,1.62341554 22.6116952,3.57140369 C22.6116952,5.51866481 24.2012251,7.09819718 26.1631524,7.09819718 C28.1227385,7.09819718 29.713,5.51866481 29.713,3.57140369 C29.713,1.62341554 28.1227385,0.0447555983 26.1631524,0.0447555983" id="Fill-8" fill="#1A188A"></path>
                <path d="M61.1985681,6.76103253 C59.9024201,6.76103253 58.7897638,7.52789746 58.2846494,8.62875722 L58.2823082,8.62875722 L58.2644566,8.66496302 C58.25158,8.69942395 58.2378254,8.73228544 58.2233392,8.76529233 L55.3812663,15.5857954 L51.219048,8.43929476 C51.2101221,8.42315483 51.2004647,8.40875975 51.1940264,8.39276522 L51.1139865,8.25855659 L51.111499,8.25855659 C50.5434649,7.36082734 49.54304,6.76103253 48.3957046,6.76103253 C46.6260485,6.76103253 45.1916233,8.18716283 45.1916233,9.94728797 C45.1916233,10.5470828 45.3597509,11.1060188 45.6515232,11.5861455 L45.6499136,11.5861455 L51.5179902,21.6795653 C51.6237833,21.9357686 51.7636701,22.1710335 51.9300418,22.3894316 L52.288831,23.0052209 L49.3588166,30.0409231 C49.3160897,30.1309287 49.2796547,30.2200618 49.2465852,30.3107944 L49.2247828,30.3605228 L49.228002,30.3629947 C49.1156243,30.6865204 49.0509486,31.0327293 49.0509486,31.3924607 C49.0509486,33.1541853 50.487715,34.5794432 52.2573711,34.5794432 C53.787054,34.5794432 55.0646187,33.5130444 55.3846317,32.089386 L64.2304247,11.0064166 C64.3467532,10.7454149 64.4041126,10.4980814 64.4041126,10.2660153 C64.4041126,10.213088 64.4017714,10.1608876 64.3967964,10.1078149 C64.3992839,10.0548875 64.4041126,10.0026872 64.4041126,9.94728797 C64.4041126,8.18716283 62.9689558,6.76103253 61.1985681,6.76103253" id="Fill-10" fill="#1A188A"></path>
                <path d="M40.2339231,13.0672243 L41.5227548,13.0672243 C43.2932889,13.0672243 44.7282994,11.6419664 44.7282994,9.88184127 C44.7282994,8.12404261 43.2932889,6.69558582 41.5227548,6.69558582 C41.4087675,6.69558582 41.2956582,6.70445552 41.1850364,6.71405223 L40.2339231,6.71405223 L40.2339231,3.98073275 C40.2460681,3.87080672 40.2516284,3.75913583 40.2516284,3.64513846 C40.2516284,1.88574035 38.8166179,0.459610042 37.0469618,0.459610042 C35.2756961,0.459610042 33.8414172,1.88574035 33.8414172,3.64513846 L33.8414172,6.69558582 C32.0708832,6.69558582 30.6357263,8.12404261 30.6357263,9.88184127 C30.6357263,11.6419664 32.0708832,13.0672243 33.8414172,13.0672243 L33.8414172,17.3543395 C33.8414172,21.9015839 33.0680889,26.6569026 40.9757915,26.6569026 L40.9757915,26.6519588 C41.0161772,26.6528312 41.0540754,26.6569026 41.0928516,26.6569026 C42.8641173,26.6569026 44.2983962,25.2307723 44.2983962,23.4722466 C44.2983962,21.7779898 42.96435,20.3944631 41.2836596,20.2955879 L41.2836596,20.2932614 C40.1134975,20.2932614 40.2339231,19.1883303 40.2339231,18.1171331 C40.2339231,18.1059369 40.229826,18.0963402 40.229826,18.0881975 L40.2339231,18.0881975 L40.2339231,13.0672243 Z" id="Fill-12" fill="#1A188A"></path>
                <path d="M118.944126,8.90025707 L118.944126,3.52275124 C118.955393,3.41108035 118.961832,3.29795542 118.961832,3.18628453 C118.961832,1.42528696 117.527553,2.90809603e-05 115.757165,2.90809603e-05 C113.987509,2.90809603e-05 112.552352,1.42528696 112.552352,3.18628453 L112.552352,8.90025707 L112.552352,17.6286166 L112.552352,23.3441886 C112.552352,25.1035867 113.987509,26.5288446 115.757165,26.5288446 C117.527553,26.5288446 118.961832,25.1035867 118.961832,23.3441886 C118.961832,23.2301912 118.955393,23.1161938 118.944126,23.0069948 L118.944126,17.6286166 L118.944126,8.90025707 Z" id="Fill-14" fill="#1A188A"></path>
                <path d="M103.449144,19.254504 C103.112157,19.5932972 102.716201,19.8606966 102.262886,20.0574293 C101.807961,20.2557615 101.323186,20.3537643 100.805195,20.3537643 C100.279888,20.3537643 99.7926254,20.2557615 99.3377006,20.0574293 C98.8836537,19.8606966 98.4900391,19.5948966 98.1580274,19.2593024 C97.8249914,18.9253075 97.5599966,18.5309697 97.3645062,18.0797786 C97.1704791,17.6284421 97.071856,17.1522414 97.071856,16.6431791 C97.071856,16.1365888 97.1704791,15.6563167 97.3645062,15.2051256 C97.5599966,14.756261 97.8249914,14.3619232 98.1580274,14.0270559 C98.4900391,13.6930611 98.8836537,13.4281335 99.3377006,13.228929 C99.7926254,13.0330687 100.279888,12.9334664 100.805195,12.9334664 C101.323186,12.9334664 101.807961,13.0330687 102.262886,13.228929 C102.716201,13.4281335 103.112157,13.6930611 103.449144,14.0319997 C103.786131,14.3707929 104.051126,14.7642583 104.246762,15.2115235 C104.442253,15.6595157 104.539998,16.1365888 104.539998,16.6431791 C104.539998,17.1522414 104.442253,17.6284421 104.246762,18.0749802 C104.051126,18.5238449 103.786131,18.9173103 103.449144,19.254504 L103.449144,19.254504 Z M110.871194,17.2532977 C110.871194,17.0520575 110.886997,16.8492178 110.886997,16.6431791 C110.87412,15.2605249 110.625806,13.9780545 110.137666,12.7994032 C109.652891,11.6165351 108.917021,10.5389401 107.93357,9.56094741 C105.941793,7.60656146 103.564887,6.62769632 100.805488,6.62769632 C98.0225304,6.62769632 95.6466492,7.60656146 93.6790152,9.56094741 C91.7106496,11.5162058 90.7279301,13.8777252 90.7279301,16.6431791 C90.7279301,19.4095055 91.7105033,21.7702979 93.6788689,23.7238114 C95.6465029,25.6815417 98.0222377,26.6588074 100.805195,26.6588074 C102.340146,26.6588074 103.756281,26.3553476 105.053892,25.7500274 C105.633486,26.5724369 106.593378,27.1104347 107.680135,27.1104347 C109.450669,27.1104347 110.886997,25.6851768 110.886997,23.9259241 C110.886997,23.8117813 110.871194,23.697784 110.871194,23.588585 L110.871194,17.2532977 Z" id="Fill-16" fill="#1A188A"></path>
                <path d="M126.952896,17.6287038 L126.952896,8.90034431 L126.952896,3.52283848 C126.964163,3.4111676 126.96987,3.29789725 126.96987,3.18637177 C126.96987,1.4253742 125.5372,0.000116323841 123.765935,0.000116323841 C121.993791,0.000116323841 120.560244,1.4253742 120.560244,3.18637177 L120.560244,8.90034431 L120.560244,17.6287038 L120.560244,23.3442758 C120.560244,25.1036739 121.993791,26.5289318 123.765935,26.5289318 C125.5372,26.5289318 126.96987,25.1036739 126.96987,23.3442758 C126.96987,23.2302784 126.964163,23.1162811 126.952896,23.0070821 L126.952896,17.6287038 Z" id="Fill-18" fill="#1A188A"></path>
                <polygon id="Fill-20" fill="#23A9E8" points="76.2303436 29.8477964 74.5827227 38.0340868 73.6178548 38.0340868 69.9341197 31.7306432 68.6748456 38.0340868 67.4979526 38.0340868 69.1455736 29.8477964 70.1105878 29.8477964 73.7943229 36.15124 75.0534506 29.8477964"></polygon>
                <path d="M78.1132846,34.4672343 L82.1382499,34.4672343 C82.1970726,33.332786 81.4673492,32.7130708 80.3611313,32.7130708 C79.2313549,32.7130708 78.3958385,33.3913842 78.1132846,34.4672343 L78.1132846,34.4672343 Z M77.9954929,35.2858634 L77.9954929,35.3559485 C77.9954929,36.4903967 78.6311293,37.1218898 79.9727844,37.1218898 C80.7496245,37.1218898 81.4556432,36.8412585 81.9028128,36.4085338 L82.3852468,37.2155305 C81.7734614,37.7885708 80.8318592,38.1042447 79.878551,38.1042447 C78.0310499,38.1042447 76.8894213,37.0518047 76.8894213,35.4145466 C76.8894213,33.3095213 78.3722801,31.7773909 80.408248,31.7773909 C82.0912796,31.7773909 83.1973512,32.7831559 83.1973512,34.4554565 C83.1973512,34.7478656 83.1620869,35.0284969 83.1151165,35.2858634 L77.9954929,35.2858634 Z" id="Fill-22" fill="#23A9E8"></path>
                <g id="Group-26" transform="translate(83.551648, 31.648809)">
                    <mask id="mask-2" fill="white">
                        <use xlink:href="#path-1"></use>
                    </mask>
                    <g id="Clip-25"></g>
                    <path d="M6.01242636,2.7131373 C6.01242636,1.71915007 5.32981964,1.11092178 4.15292663,1.11092178 C2.72903681,1.11092178 1.70505356,2.12846459 1.70505356,3.53176634 C1.70505356,4.53753136 2.39951262,5.14561425 3.56455329,5.14561425 C4.98858944,5.14561425 6.01242636,4.12821684 6.01242636,2.7131373 L6.01242636,2.7131373 Z M7.74242835,0.187019658 L6.67147474,5.54329638 C6.22430514,7.78863735 5.01214778,8.72431726 2.94076927,8.72431726 C1.75217025,8.72431726 0.763597682,8.40849802 0.0926969688,7.84723548 L0.716480991,6.9817861 C1.19891494,7.42614318 2.04643008,7.73018462 3.02315031,7.73018462 C4.49430315,7.73018462 5.23558625,7.063649 5.50643407,5.71865457 L5.60066745,5.2742975 C5.0355598,5.81229527 4.27071836,6.1279691 3.34096849,6.1279691 C1.69320122,6.1279691 0.563571232,5.16902442 0.563571232,3.60199686 C0.563571232,1.63728716 2.03457775,0.128566927 4.11766227,0.128566927 C5.14164552,0.128566927 6.0359847,0.502838889 6.44788994,1.32146793 L6.67147474,0.187019658 L7.74242835,0.187019658 Z" id="Fill-24" fill="#23A9E8" mask="url(#mask-2)"></path>
                </g>
                <path d="M97.6372563,34.502306 C97.6372563,33.4029002 96.9663556,32.7597748 95.7777566,32.7597748 C94.3772788,32.7597748 93.3417358,33.8474027 93.3417358,35.3793877 C93.3417358,36.4670157 94.0124902,37.1219189 95.2010892,37.1219189 C96.613273,37.1219189 97.6372563,36.034291 97.6372563,34.502306 M92.2001072,35.4262081 C92.2001072,33.3328151 93.7299364,31.77742 95.8599913,31.77742 C97.6372563,31.77742 98.7788849,32.8182275 98.7788849,34.4438532 C98.7788849,36.5488786 97.2606154,38.1042737 95.1304142,38.1042737 C93.3534418,38.1042737 92.2001072,37.040056 92.2001072,35.4262081" id="Fill-27" fill="#23A9E8"></path>
                <path d="M99.6730924,35.4262081 C99.6730924,33.3328151 101.202922,31.77742 103.344975,31.77742 C104.54528,31.77742 105.427913,32.221777 105.910494,33.122269 L104.957185,33.648489 C104.627661,33.0521839 104.062846,32.7597748 103.262448,32.7597748 C101.850264,32.7597748 100.814721,33.8474027 100.814721,35.3793877 C100.814721,36.4670157 101.485475,37.1219189 102.685927,37.1219189 C103.42721,37.1219189 104.109817,36.8295098 104.54528,36.2448371 L105.369237,36.8295098 C104.792423,37.6248741 103.756734,38.1042737 102.63881,38.1042737 C100.826427,38.1042737 99.6730924,37.040056 99.6730924,35.4262081" id="Fill-29" fill="#23A9E8"></path>
                <path d="M107.828714,29.964731 C107.828714,29.5320063 108.158384,29.1811445 108.640818,29.1811445 C109.052723,29.1811445 109.358689,29.4853313 109.358689,29.8360477 C109.358689,30.3155928 109.017459,30.6430444 108.534879,30.6430444 C108.122974,30.6430444 107.828714,30.3390029 107.828714,29.964731 L107.828714,29.964731 Z M107.64054,31.8359454 L108.770316,31.8359454 L107.5346,38.0341159 L106.404824,38.0341159 L107.64054,31.8359454 Z" id="Fill-31" fill="#23A9E8"></path>
                <path d="M115.113539,34.502306 C115.113539,33.4029002 114.442639,32.7597748 113.25404,32.7597748 C111.853562,32.7597748 110.818019,33.8474027 110.818019,35.3793877 C110.818019,36.4670157 111.488773,37.1219189 112.677372,37.1219189 C114.089556,37.1219189 115.113539,36.034291 115.113539,34.502306 M109.67639,35.4262081 C109.67639,33.3328151 111.20622,31.77742 113.336274,31.77742 C115.113539,31.77742 116.255168,32.8182275 116.255168,34.4438532 C116.255168,36.5488786 114.736899,38.1042737 112.606697,38.1042737 C110.829725,38.1042737 109.67639,37.040056 109.67639,35.4262081" id="Fill-33" fill="#23A9E8"></path>
                <path d="M116.561061,37.3908742 L117.067053,36.50216 C117.549633,36.8880643 118.38515,37.1336531 119.232519,37.1336531 C120.315178,37.1336531 120.868434,36.7944236 120.868434,36.2215287 C120.868434,35.0168499 117.40843,35.8822993 117.40843,33.7889064 C117.40843,32.5609628 118.5265,31.7773763 120.232944,31.7773763 C121.056754,31.7773763 121.904123,31.9879225 122.410115,32.3387843 L121.962946,33.2276438 C121.456807,32.876782 120.762494,32.736321 120.127004,32.736321 C119.079609,32.736321 118.538206,33.1223708 118.538206,33.6602231 C118.538206,34.9115769 121.986358,34.0344951 121.986358,36.0928455 C121.986358,37.3792418 120.821317,38.1042301 119.126579,38.1042301 C118.067478,38.1042301 117.067053,37.8001887 116.561061,37.3908742" id="Fill-35" fill="#23A9E8"></path>
                <polygon id="Fill-37" fill="#FFFFFF" points="130.075328 23.703731 129.443349 24.7711477 128.799812 23.703731 128.576519 23.703731 128.576519 25.3031839 128.722845 25.3031839 128.722845 24.2376575 129.371504 25.0123743 129.50583 25.0123743 130.038307 24.1824036 130.040649 25.3031839 130.325397 25.3031839 130.323056 23.703731"></polygon>
                <path d="M130.828024,24.9254076 C130.723841,24.9254076 130.63824,25.0013089 130.63824,25.1163241 C130.63824,25.2268318 130.723841,25.3072407 130.828024,25.3072407 C130.932208,25.3072407 131.017808,25.2268318 131.017808,25.1163241 C131.017808,25.0013089 130.932208,24.9254076 130.828024,24.9254076" id="Fill-39" fill="#FFFFFF"></path>
                <path d="M131.980949,24.5761598 L131.649376,24.5761598 L131.649376,23.8491358 L131.980949,23.8491358 C132.24492,23.8491358 132.381441,24.0090811 132.381441,24.2114846 C132.381441,24.4138881 132.24492,24.5761598 131.980949,24.5761598 M132.684773,24.265139 C132.684773,23.9086064 132.420802,23.703731 131.99485,23.703731 L131.356726,23.703731 L131.356726,25.3031839 L131.649376,25.3031839 L131.649376,24.7215646 L131.99485,24.7215646 C132.015628,24.7215646 132.036553,24.7776909 132.057331,24.7753644 L132.388465,25.3031839 L132.712428,25.3031839 L132.339738,24.773765 C132.559665,24.6887032 132.684773,24.5089828 132.684773,24.265139" id="Fill-41" fill="#FFFFFF"></path>
                <path d="M133.08544,24.9254076 C132.981257,24.9254076 132.895657,25.0013089 132.895657,25.1163241 C132.895657,25.2268318 132.981257,25.3072407 133.08544,25.3072407 C133.189624,25.3072407 133.275224,25.2268318 133.275224,25.1163241 C133.275224,25.0013089 133.189624,24.9254076 133.08544,24.9254076" id="Fill-43" fill="#FFFFFF"></path>
            </g>
        </g>
    </g>
</svg>