<?xml version="1.0" encoding="UTF-8" standalone="no"?>
<svg width="229px" height="70px" viewBox="0 0 229 70" version="1.1" xmlns="http://www.w3.org/2000/svg" xmlns:xlink="http://www.w3.org/1999/xlink">
    <!-- Generator: Sketch 41.1 (35376) - http://www.bohemiancoding.com/sketch -->
    <title>Page 1</title>
    <desc>Created with Sketch.</desc>
    <defs>
        <polygon id="path-1" points="0.159244237 15.1079137 13.3007272 15.1079137 13.3007272 0.222640288 0.159244237 0.222640288 0.159244237 15.1079137"></polygon>
    </defs>
    <g id="Page-1" stroke="none" stroke-width="1" fill="none" fill-rule="evenodd">
        <g id="INICIO-SIN-SESION" transform="translate(-93.000000, -200.000000)">
            <g id="Page-1" transform="translate(93.000000, 200.000000)">
                <path d="M150.030217,16.0942842 C148.930716,14.9916583 147.639668,14.1169101 146.160092,13.4730612 C144.678756,12.8279532 143.112959,12.5038885 141.460942,12.5038885 C137.790657,12.5038885 134.69501,13.9514784 132.169977,16.8438885 C130.971937,15.3879892 129.5728,14.301982 127.973571,13.5815863 C126.374341,12.8654712 124.667022,12.5038885 122.851361,12.5038885 C118.436764,12.5038885 110.700536,13.9502194 110.700536,24.9631331 L110.700536,40.2060108 C110.700536,40.2450396 110.704809,40.2838165 110.707574,40.3228453 C110.704809,40.3588525 110.700536,40.3936007 110.700536,40.4255791 C110.700536,43.4708309 113.167502,45.941982 116.208853,45.941982 C119.24769,45.941982 121.712897,43.4708309 121.712897,40.4255791 L121.712897,26.4147518 C121.712897,26.4147518 121.715662,26.4064424 121.71717,26.4009029 C121.715662,26.3465144 121.710132,26.2911187 121.710132,26.2339604 C121.710132,24.8712266 122.816672,23.7643201 124.179611,23.7643201 C125.541545,23.7643201 126.646577,24.8712266 126.646577,26.2339604 L126.646577,26.2465504 L126.646577,26.2714784 L126.646577,40.4255791 C126.646577,43.4708309 129.117565,45.941982 132.156151,45.941982 C135.196246,45.941982 137.66296,43.4708309 137.66296,40.4255791 L137.676786,40.4255791 L137.676786,26.2714784 C137.676786,26.2714784 137.676786,26.2646799 137.679551,26.2465504 L137.679551,26.2339604 C137.679551,24.8712266 138.784583,23.7643201 140.146517,23.7643201 C141.512473,23.7643201 142.617253,24.8712266 142.617253,26.2339604 C142.617253,26.2911187 142.610466,26.3465144 142.607701,26.4009029 C142.607701,26.4064424 142.613232,26.4147518 142.613232,26.4147518 L142.613232,40.142054 C142.607701,40.2379892 142.597898,40.3311547 142.597898,40.4255791 C142.597898,43.4708309 145.061847,45.941982 148.106215,45.941982 C151.146309,45.941982 153.611767,43.4708309 153.611767,40.4255791 C153.611767,40.3936007 153.607494,40.3588525 153.607494,40.3228453 C153.607494,40.2838165 153.611767,40.2450396 153.611767,40.2060108 L153.611767,24.6765863 C153.611767,23.0205072 153.288251,21.4533129 152.645493,19.9697158 C151.998712,18.4873777 151.126954,17.1941403 150.030217,16.0942842" id="Fill-1" fill="#FFFFFF"></path>
                <g id="Group-5" transform="translate(0.000000, 2.432374)" fill="#FFFFFF">
                    <path d="M32.0833525,29.0365036 C30.6409793,29.0365036 29.3348497,29.5970072 28.3519847,30.5062518 L28.3504765,30.503482 C25.8948223,32.9605324 11.012336,35.0658201 11.012336,21.8962518 C11.012336,10.7566835 23.8805775,8.86567626 28.1908552,13.187295 L28.1923634,13.1845252 C29.1862888,14.1745971 30.55501,14.7849568 32.0652537,14.7849568 C35.1096214,14.7849568 37.5735709,12.3155683 37.5735709,9.26754676 C37.5735709,7.73938129 36.9501681,6.3557482 35.9479474,5.35736691 C35.8923942,5.29189928 35.8355841,5.22945324 35.7729924,5.1667554 C31.6140407,1.76546043 26.9541044,0.066323741 21.796954,0.066323741 C18.6930111,0.066323741 15.8208333,0.639165468 13.183437,1.77956115 C13.0446796,1.83520863 12.9099441,1.8933741 12.779482,1.95884173 C10.4640934,3.01841007 8.32768178,4.52290647 6.37452042,6.4781223 C2.12532613,10.737295 -2.51372121e-05,15.8752446 -2.51372121e-05,21.8962518 C-2.51372121e-05,27.9366475 2.12532613,33.088446 6.37452042,37.3435899 C10.6237147,41.6027626 15.7667883,43.7286978 21.796954,43.7286978 C26.8304293,43.7286978 31.3573898,42.1408561 35.3775841,38.9661799 C36.7171461,37.961 37.5901615,36.3630863 37.5901615,34.5554245 C37.5901615,31.5101727 35.1234469,29.0365036 32.0833525,29.0365036" id="Fill-3"></path>
                </g>
                <path d="M50.5715456,20.9122734 C50.5715456,17.8657626 48.107596,15.3946115 45.0659934,15.3946115 C42.025899,15.3946115 39.5591844,17.8657626 39.5591844,20.9122734 L39.5591844,40.9901871 L39.5911087,40.9901871 C39.8839572,43.761482 42.2229748,45.9221655 45.0659934,45.9221655 C47.9090121,45.9221655 50.2495379,43.761482 50.5408782,40.9901871 L50.5423864,40.9901871 L50.5423864,40.9886763 C50.561742,40.795295 50.5715456,40.6021655 50.5715456,40.4047554 C50.5715456,40.2086043 50.561742,40.013964 50.5423864,39.8233525 L50.5423864,21.4936763 C50.561742,21.3030647 50.5715456,21.1084245 50.5715456,20.9122734" id="Fill-6" fill="#FFFFFF"></path>
                <path d="M44.9457119,0.0775035971 C41.5753145,0.0775035971 38.8446592,2.81128058 38.8446592,6.1846259 C38.8446592,9.55671223 41.5753145,12.292 44.9457119,12.292 C48.3120873,12.292 51.0439995,9.55671223 51.0439995,6.1846259 C51.0439995,2.81128058 48.3120873,0.0775035971 44.9457119,0.0775035971" id="Fill-8" fill="#FFFFFF"></path>
                <path d="M105.133096,11.7081295 C102.906441,11.7081295 100.995008,13.0361151 100.127271,14.942482 L100.123249,14.942482 L100.092582,15.0051799 C100.070461,15.0648561 100.046832,15.1217626 100.021946,15.1789209 L95.1395457,26.990036 L87.9892658,14.6143885 C87.9739321,14.5864388 87.9573415,14.5615108 87.9462811,14.5338129 L87.8087806,14.3014029 L87.8045072,14.3014029 C86.8286807,12.7467986 85.1100495,11.7081295 83.1390407,11.7081295 C80.0989463,11.7081295 77.6347454,14.1777698 77.6347454,17.2257914 C77.6347454,18.2644604 77.923572,19.2323741 78.424808,20.0638129 L78.4220429,20.0638129 L88.502819,37.5426619 C88.684561,37.9863309 88.9248728,38.393741 89.2106829,38.7719424 L89.8270473,39.8383094 L84.793572,52.0220863 C84.7201714,52.1779496 84.6575797,52.3323022 84.6007696,52.4894245 L84.5633151,52.5755396 L84.5688453,52.5798201 C84.3757915,53.1400719 84.2646851,53.7396043 84.2646851,54.362554 C84.2646851,57.4133453 86.7329079,59.8814748 89.7730023,59.8814748 C92.4008464,59.8814748 94.5955764,58.0347842 95.1453272,55.5694245 L110.341526,19.0598921 C110.541367,18.6079137 110.639905,18.1796043 110.639905,17.7777338 C110.639905,17.6860791 110.635883,17.5956835 110.627336,17.503777 C110.631609,17.4121223 110.639905,17.3217266 110.639905,17.2257914 C110.639905,14.1777698 108.174447,11.7081295 105.133096,11.7081295" id="Fill-10" fill="#FFFFFF"></path>
                <path d="M69.1179061,22.6286079 L71.3319918,22.6286079 C74.3735944,22.6286079 76.8388008,20.1604784 76.8388008,17.1124568 C76.8388008,14.068464 74.3735944,11.594795 71.3319918,11.594795 C71.1361729,11.594795 70.9418622,11.6101547 70.7518249,11.6267734 L69.1179061,11.6267734 L69.1179061,6.89346403 C69.13877,6.70310432 69.1483222,6.50972302 69.1483222,6.31231295 C69.1483222,3.26555036 66.6831158,0.795910072 63.6430214,0.795910072 C60.6001619,0.795910072 58.1362124,3.26555036 58.1362124,6.31231295 L58.1362124,11.594795 C55.0946098,11.594795 52.629152,14.068464 52.629152,17.1124568 C52.629152,20.1604784 55.0946098,22.6286079 58.1362124,22.6286079 L58.1362124,30.0526367 C58.1362124,37.9271331 56.8077108,46.1619532 70.3923628,46.1619532 L70.3923628,46.1533921 C70.4617415,46.1549029 70.5268469,46.1619532 70.5934605,46.1619532 C73.63632,46.1619532 76.1002695,43.6923129 76.1002695,40.6470612 C76.1002695,37.7131043 73.8085099,35.317241 70.9212497,35.146018 L70.9212497,35.1419892 C68.9110269,35.1419892 69.1179061,33.2285719 69.1179061,31.3735719 C69.1179061,31.3541835 69.1108677,31.3375647 69.1108677,31.323464 L69.1179061,31.323464 L69.1179061,22.6286079 Z" id="Fill-12" fill="#FFFFFF"></path>
                <path d="M204.334262,15.4126403 L204.334262,6.1003741 C204.353617,5.90699281 204.364678,5.71109353 204.364678,5.51771223 C204.364678,2.46817986 201.900728,5.0359713e-05 198.859377,5.0359713e-05 C195.819283,5.0359713e-05 193.353825,2.46817986 193.353825,5.51771223 L193.353825,15.4126403 L193.353825,30.5276043 L193.353825,40.4253022 C193.353825,43.4720647 195.819283,45.9401942 198.859377,45.9401942 C201.900728,45.9401942 204.364678,43.4720647 204.364678,40.4253022 C204.364678,40.2278921 204.353617,40.030482 204.334262,39.8413813 L204.334262,30.5276043 L204.334262,15.4126403 Z" id="Fill-14" fill="#FFFFFF"></path>
                <path d="M177.715412,33.3431655 C177.136502,33.9298561 176.456289,34.3929137 175.677539,34.7335971 C174.896023,35.0770504 174.063227,35.2467626 173.173369,35.2467626 C172.270944,35.2467626 171.433874,35.0770504 170.652359,34.7335971 C169.872351,34.3929137 169.19616,33.9326259 168.625796,33.3514748 C168.053674,32.7730935 167.598439,32.0902158 167.262605,31.3088849 C166.929286,30.5273022 166.759861,29.7026619 166.759861,28.8211151 C166.759861,27.9438489 166.929286,27.1121583 167.262605,26.3308273 C167.598439,25.5535252 168.053674,24.8706475 168.625796,24.2907554 C169.19616,23.7123741 169.872351,23.2535971 170.652359,22.9086331 C171.433874,22.5694604 172.270944,22.3969784 173.173369,22.3969784 C174.063227,22.3969784 174.896023,22.5694604 175.677539,22.9086331 C176.456289,23.2535971 177.136502,23.7123741 177.715412,24.2993165 C178.294322,24.8860072 178.749557,25.5673741 179.085642,26.3419065 C179.421475,27.1176978 179.589391,27.9438489 179.589391,28.8211151 C179.589391,29.7026619 179.421475,30.5273022 179.085642,31.3005755 C178.749557,32.0778777 178.294322,32.7592446 177.715412,33.3431655 L177.715412,33.3431655 Z M190.46576,29.8776619 C190.46576,29.5291727 190.492908,29.1779137 190.492908,28.8211151 C190.470788,26.4267626 190.044209,24.2058993 189.205632,22.1648201 C188.372836,20.1164388 187.108686,18.2503597 185.419214,16.5567626 C181.997536,13.1723381 177.914248,11.4772302 173.173872,11.4772302 C168.393026,11.4772302 164.311497,13.1723381 160.931296,16.5567626 C157.549838,19.9426978 155.861623,24.0321583 155.861623,28.8211151 C155.861623,33.6115827 157.549587,37.6997842 160.931045,41.0826978 C164.311245,44.4729137 168.392523,46.1652518 173.173369,46.1652518 C175.810263,46.1652518 178.243042,45.6397482 180.47221,44.5915108 C181.467895,46.0156835 183.116896,46.9473381 184.983837,46.9473381 C188.02544,46.9473381 190.492908,44.4792086 190.492908,41.4326978 C190.492908,41.235036 190.46576,41.0376259 190.46576,40.8485252 L190.46576,29.8776619 Z" id="Fill-16" fill="#FFFFFF"></path>
                <path d="M218.092536,30.5277554 L218.092536,15.4127914 L218.092536,6.10052518 C218.111892,5.90714388 218.121696,5.71099281 218.121696,5.51786331 C218.121696,2.46833094 215.660511,0.000201438848 212.617652,0.000201438848 C209.573284,0.000201438848 207.110591,2.46833094 207.110591,5.51786331 L207.110591,15.4127914 L207.110591,30.5277554 L207.110591,40.4254532 C207.110591,43.4722158 209.573284,45.9403453 212.617652,45.9403453 C215.660511,45.9403453 218.121696,43.4722158 218.121696,40.4254532 C218.121696,40.2280432 218.111892,40.0306331 218.092536,39.8415324 L218.092536,30.5277554 Z" id="Fill-18" fill="#FFFFFF"></path>
                <polygon id="Fill-20" fill="#23A9E8" points="130.956201 51.6876475 128.125751 65.8639065 126.468204 65.8639065 120.139911 54.9481871 117.976602 65.8639065 115.954816 65.8639065 118.785266 51.6876475 120.443065 51.6876475 126.771358 62.6033669 128.934415 51.6876475"></polygon>
                <path d="M134.190908,59.6871619 L141.105401,59.6871619 C141.206453,57.7226295 139.95286,56.649464 138.052487,56.649464 C136.111642,56.649464 134.676308,57.8241043 134.190908,59.6871619 L134.190908,59.6871619 Z M133.988554,61.1047878 L133.988554,61.2261547 C133.988554,63.1906871 135.080514,64.2842482 137.385345,64.2842482 C138.71988,64.2842482 139.93275,63.798277 140.700943,63.0489245 L141.529717,64.4464065 C140.47873,65.4387446 138.861151,65.9853993 137.223461,65.9853993 C134.049637,65.9853993 132.088432,64.1628813 132.088432,61.3276295 C132.088432,57.6823417 134.635837,55.0291403 138.133428,55.0291403 C141.024711,55.0291403 142.924832,56.7708309 142.924832,59.6667662 C142.924832,60.1731331 142.864252,60.6591043 142.783561,61.1047878 L133.988554,61.1047878 Z" id="Fill-22" fill="#23A9E8"></path>
                <g id="Group-26" transform="translate(143.533480, 54.806475)">
                    <mask id="mask-2" fill="white">
                        <use xlink:href="#path-1"></use>
                    </mask>
                    <g id="Clip-25"></g>
                    <path d="M10.3287547,4.69835971 C10.3287547,2.97706475 9.15610373,1.92379137 7.13431778,1.92379137 C4.6882157,1.92379137 2.92911361,3.6858777 2.92911361,6.11598561 C2.92911361,7.85767626 4.12212569,8.91069784 6.12355049,8.91069784 C8.56990395,8.91069784 10.3287547,7.14886331 10.3287547,4.69835971 L10.3287547,4.69835971 Z M13.3007272,0.323863309 L11.4609347,9.59936691 C10.6927415,13.4876403 8.61037486,15.107964 5.05195115,15.107964 C3.01005543,15.107964 1.3117854,14.5610576 0.159244237,13.5891151 L1.23084358,12.0904101 C2.05961745,12.8599065 3.51556476,13.3864173 5.19347366,13.3864173 C7.72076894,13.3864173 8.99422009,12.2321727 9.45950988,9.90303597 L9.62139352,9.13353957 C8.6505944,10.0651942 7.33667234,10.6118489 5.7394539,10.6118489 C2.90875247,10.6118489 0.968159715,8.95123741 0.968159715,6.23760432 C0.968159715,2.83530216 3.49520362,0.222640288 7.0737371,0.222640288 C8.83283919,0.222640288 10.3692256,0.870769784 11.0768381,2.28839568 L11.4609347,0.323863309 L13.3007272,0.323863309 Z" id="Fill-24" fill="#23A9E8" mask="url(#mask-2)"></path>
                </g>
                <path d="M167.731163,59.7478957 C167.731163,57.8440468 166.578622,56.7303417 164.536726,56.7303417 C162.130844,56.7303417 160.351883,58.613795 160.351883,61.2667446 C160.351883,63.1501978 161.504173,64.2842986 163.546069,64.2842986 C165.972061,64.2842986 167.731163,62.4008453 167.731163,59.7478957 M158.390678,61.3478237 C158.390678,57.7226799 161.018773,55.0291906 164.677997,55.0291906 C167.731163,55.0291906 169.692368,56.8315647 169.692368,59.6466727 C169.692368,63.2919604 167.084131,65.9854496 163.424656,65.9854496 C160.371993,65.9854496 158.390678,64.142536 158.390678,61.3478237" id="Fill-27" fill="#23A9E8"></path>
                <path d="M171.228529,61.3478237 C171.228529,57.7226799 173.856624,55.0291906 177.53646,55.0291906 C179.598466,55.0291906 181.114743,55.7986871 181.943768,57.3580755 L180.306078,58.2693345 C179.739988,57.2367086 178.769692,56.7303417 177.394687,56.7303417 C174.968694,56.7303417 173.189734,58.613795 173.189734,61.2667446 C173.189734,63.1501978 174.342024,64.2842986 176.40428,64.2842986 C177.677732,64.2842986 178.850383,63.7779317 179.598466,62.7654496 L181.013942,63.7779317 C180.023033,65.1552698 178.243822,65.9854496 176.323339,65.9854496 C173.209844,65.9854496 171.228529,64.142536 171.228529,61.3478237" id="Fill-29" fill="#23A9E8"></path>
                <path d="M185.23908,51.8901439 C185.23908,51.1407914 185.805422,50.5332014 186.634196,50.5332014 C187.341808,50.5332014 187.867427,51.059964 187.867427,51.6673022 C187.867427,52.4977338 187.281227,53.0647842 186.452202,53.0647842 C185.74459,53.0647842 185.23908,52.5382734 185.23908,51.8901439 L185.23908,51.8901439 Z M184.915816,55.1305396 L186.85666,55.1305396 L184.733822,65.8639568 L182.792978,65.8639568 L184.915816,55.1305396 Z" id="Fill-31" fill="#23A9E8"></path>
                <path d="M197.753692,59.7478957 C197.753692,57.8440468 196.60115,56.7303417 194.559255,56.7303417 C192.153372,56.7303417 190.374412,58.613795 190.374412,61.2667446 C190.374412,63.1501978 191.526701,64.2842986 193.568597,64.2842986 C195.994589,64.2842986 197.753692,62.4008453 197.753692,59.7478957 M188.413206,61.3478237 C188.413206,57.7226799 191.041302,55.0291906 194.700526,55.0291906 C197.753692,55.0291906 199.714897,56.8315647 199.714897,59.6466727 C199.714897,63.2919604 197.10666,65.9854496 193.447184,65.9854496 C190.394521,65.9854496 188.413206,64.142536 188.413206,61.3478237" id="Fill-33" fill="#23A9E8"></path>
                <path d="M200.24039,64.7500504 L201.109635,63.2110576 C201.93866,63.8793309 203.373995,64.3046187 204.829691,64.3046187 C206.689593,64.3046187 207.640031,63.7171727 207.640031,62.7250863 C207.640031,60.6389353 201.696086,62.1376403 201.696086,58.5124964 C201.696086,56.3860576 203.616821,55.0291151 206.548322,55.0291151 C207.963547,55.0291151 209.419243,55.3937194 210.288488,56.0013094 L209.520295,57.540554 C208.650799,56.932964 207.458038,56.6897266 206.366329,56.6897266 C204.567007,56.6897266 203.63693,57.3582518 203.63693,58.2896547 C203.63693,60.4566331 209.560514,58.9377842 209.560514,62.5022446 C209.560514,64.7299065 207.559089,65.9853741 204.647698,65.9853741 C202.828266,65.9853741 201.109635,65.4588633 200.24039,64.7500504" id="Fill-35" fill="#23A9E8"></path>
                <polygon id="Fill-37" fill="#FFFFFF" points="223.456566 41.0479245 222.37089 42.8963777 221.265355 41.0479245 220.881761 41.0479245 220.881761 43.8177086 221.133134 43.8177086 221.133134 41.9725288 222.247466 43.3141115 222.478226 43.3141115 223.392969 41.8768453 223.396991 43.8177086 223.886161 43.8177086 223.882139 41.0479245"></polygon>
                <path d="M224.749624,43.1635108 C224.570647,43.1635108 224.423595,43.2949496 224.423595,43.4941223 C224.423595,43.6854892 224.570647,43.8247338 224.749624,43.8247338 C224.928601,43.8247338 225.075654,43.6854892 225.075654,43.4941223 C225.075654,43.2949496 224.928601,43.1635108 224.749624,43.1635108" id="Fill-39" fill="#FFFFFF"></path>
                <path d="M226.730235,42.5587158 L226.160626,42.5587158 L226.160626,41.299723 L226.730235,41.299723 C227.183711,41.299723 227.418241,41.5767014 227.418241,41.927205 C227.418241,42.2777086 227.183711,42.5587158 226.730235,42.5587158 M227.939335,42.0201187 C227.939335,41.4027086 227.48586,41.0479245 226.754116,41.0479245 L225.657882,41.0479245 L225.657882,43.8177086 L226.160626,43.8177086 L226.160626,42.8105144 L226.754116,42.8105144 C226.789811,42.8105144 226.825757,42.9077086 226.861452,42.9036799 L227.430307,43.8177086 L227.986845,43.8177086 L227.3466,42.9009101 C227.724412,42.7536079 227.939335,42.4423849 227.939335,42.0201187" id="Fill-41" fill="#FFFFFF"></path>
                <path d="M228.627642,43.1635108 C228.448666,43.1635108 228.301613,43.2949496 228.301613,43.4941223 C228.301613,43.6854892 228.448666,43.8247338 228.627642,43.8247338 C228.806619,43.8247338 228.953672,43.6854892 228.953672,43.4941223 C228.953672,43.2949496 228.806619,43.1635108 228.627642,43.1635108" id="Fill-43" fill="#FFFFFF"></path>
            </g>
        </g>
    </g>
</svg>